<?xml version="1.0" standalone="no"?>
<!DOCTYPE svg PUBLIC "-//W3C//DTD SVG 1.1//EN" "http://www.w3.org/Graphics/SVG/1.1/DTD/svg11.dtd" >
<svg>
<metadata>
Created by FontForge 20090914 at Sun Apr 21 23:30:15 2019
 By www-data
Copyright (c) Mark Simonson, 2005. All rights reserved.
</metadata>
<defs>
<font id="ProximaNova-Regular" horiz-adv-x="1171" >
  <font-face 
    font-family="Proxima Nova Rg"
    font-weight="400"
    font-stretch="normal"
    units-per-em="2048"
    panose-1="2 0 5 6 3 0 0 2 0 4"
    ascent="1618"
    descent="-430"
    x-height="989"
    cap-height="1366"
    bbox="-201 -408 2152 1823"
    underline-thickness="40"
    underline-position="-231"
    unicode-range="U+0020-U+FB04"
  />
<missing-glyph horiz-adv-x="2048" 
 />
    <glyph glyph-name="uniFB01" unicode="fi" horiz-adv-x="1042" 
d="M33 854l-0.000976562 134.998h164v76c0 100.667 26 179.334 78 236.001s121.333 85 208 85c63.333 0 114 -10.667 152 -32l-39 -117c-27.333 15.333 -56.666 23 -87.999 23c-51.333 0 -90.5 -16.667 -117.5 -50s-40.5 -81.666 -40.5 -144.999v-76h201v-135h-201v-854
h-153v854h-164zM708.999 1233c0 28.667 10.167 53.167 30.5 73.5s44.833 30.5 73.5 30.5s52.834 -10.167 72.501 -30.5s29.5 -44.833 29.5 -73.5s-9.83301 -53 -29.5 -73s-43.834 -30 -72.501 -30s-53.167 10 -73.5 30s-30.5 44.333 -30.5 73zM734.999 -0.00195312v989h154
v-989h-154z" />
    <glyph glyph-name="uniFB02" unicode="fl" horiz-adv-x="1042" 
d="M33 854l-0.000976562 134.998h164v76c0 100.667 26 179.334 78 236.001s121.333 85 208 85c63.333 0 114 -10.667 152 -32l-39 -117c-27.333 15.333 -56.666 23 -87.999 23c-51.333 0 -90.5 -16.667 -117.5 -50s-40.5 -81.666 -40.5 -144.999v-76h201v-135h-201v-854
h-153v854h-164zM734.999 -0.00195312v1366h154v-1366h-154z" />
    <glyph glyph-name="uniFB03" unicode="ffi" horiz-adv-x="1622" 
d="M33 854v134.998h164v76c0 100.667 25.667 179.334 77 236.001s121 85 209 85c86 0 155.667 -25 209 -75l-63 -99c-36.667 32 -77 48 -121 48c-51.333 0 -90.5 -16.667 -117.5 -50s-40.5 -81.666 -40.5 -144.999v-76h201v-135h-201v-854h-153v854h-164zM614 853.998
l-0.000976562 134.998h164v76c0 100.667 26.167 179.334 78.5 236.001s121.833 85 208.5 85c63.333 0 114 -10.667 152 -32l-39 -117c-27.333 15.333 -56.666 23 -87.999 23c-51.333 0 -90.5 -16.667 -117.5 -50s-40.5 -81.666 -40.5 -144.999v-76h201v-135h-201v-854h-154
v854h-164zM1288 1233c0 28.667 10.333 53.167 31 73.5s45.334 30.5 74.001 30.5s52.834 -10.167 72.501 -30.5s29.5 -44.833 29.5 -73.5s-9.83301 -53 -29.5 -73s-43.834 -30 -72.501 -30s-53.334 10 -74.001 30s-31 44.333 -31 73zM1315 -0.00390625v989h153v-989h-153z
" />
    <glyph glyph-name="uniFB04" unicode="ffl" horiz-adv-x="1622" 
d="M33 854v134.998h164v76c0 100.667 25.667 179.334 77 236.001s121 85 209 85c86 0 155.667 -25 209 -75l-63 -99c-36.667 32 -77 48 -121 48c-51.333 0 -90.5 -16.667 -117.5 -50s-40.5 -81.666 -40.5 -144.999v-76h201v-135h-201v-854h-153v854h-164zM614 853.998
l-0.000976562 134.998h164v76c0 100.667 26.167 179.334 78.5 236.001s121.833 85 208.5 85c63.333 0 114 -10.667 152 -32l-39 -117c-27.333 15.333 -56.666 23 -87.999 23c-51.333 0 -90.5 -16.667 -117.5 -50s-40.5 -81.666 -40.5 -144.999v-76h201v-135h-201v-854h-154
v854h-164zM1315 -0.00390625v1366h153v-1366h-153z" />
    <glyph glyph-name=".notdef" horiz-adv-x="2048" 
 />
    <glyph glyph-name="space" unicode=" " horiz-adv-x="530" 
 />
    <glyph glyph-name="exclam" unicode="!" horiz-adv-x="471" 
d="M123 92c0 30.667 11.167 57.167 33.5 79.5s48.833 33.5 79.5 33.5s57 -11.167 79 -33.5s33 -48.833 33 -79.5c0 -30 -11.167 -56.167 -33.5 -78.5s-48.5 -33.5 -78.5 -33.5c-30.667 0 -57.167 11.333 -79.5 34s-33.5 48.667 -33.5 78zM139 1366h193l-33 -983h-127z" />
    <glyph glyph-name="quotedbl" unicode="&#x22;" horiz-adv-x="704" 
d="M111 1292c0 25.333 9 47.335 27 66.002s39.667 28 65 28c26 0 48.167 -9.16699 66.5 -27.5s27.5 -40.5 27.5 -66.5c0 -8.66699 -4.5 -50.334 -13.5 -125.001s-18.167 -147 -27.5 -217l-14 -106h-76c-36.667 279.333 -55 428.666 -55 447.999zM408 1292
c0 26 9.16699 48.1689 27.5 66.502s40.5 27.5 66.5 27.5c25.333 0 47 -9.33301 65 -28s27 -40.667 27 -66c0 -8.66699 -4.66699 -50.334 -14 -125.001l-28 -217l-13 -106h-76c-36.667 279.333 -55 428.666 -55 447.999z" />
    <glyph glyph-name="numbersign" unicode="#" horiz-adv-x="1210" 
d="M45 371l35 108h219l135 408h-221l33 106h225l123 373h127l-123 -373h225l123 373h125l-125 -373h219l-30 -106h-224l-137 -408h227l-32 -108h-232l-123 -371h-125l125 371h-227l-123 -371h-127l125 371h-217zM424 479h225l137 408h-225z" />
    <glyph glyph-name="dollar" unicode="$" horiz-adv-x="1214" 
d="M88 193l101.995 130.999c42.667 -50 95 -92.5 157 -127.5s131.333 -56.833 208 -65.5v498c-36 10 -66 18.667 -90 26s-52.167 17.333 -84.5 30s-59.166 25.334 -80.499 38.001s-43.666 28.667 -66.999 48s-41.833 40 -55.5 62s-24.834 47.833 -33.501 77.5
s-13 62.167 -13 97.5c0 104.667 39.5 191.5 118.5 260.5s180.833 108.167 305.5 117.5v187h125v-189c162.667 -13.333 297.667 -76 405 -188l-102 -125c-80.667 88.667 -181.667 141.334 -303 158.001v-447c36 -10 66.5 -19 91.5 -27s53.833 -18.667 86.5 -32
s60.334 -27 83.001 -41s45.834 -31.333 69.501 -52s42.667 -42.667 57 -66s26 -51 35 -83s13.5 -66.667 13.5 -104c0 -48 -8.16699 -93.833 -24.5 -137.5s-41 -84.5 -74 -122.5s-78.5 -69.5 -136.5 -94.5s-125 -40.167 -201 -45.5v-182h-125v182
c-99.333 6 -188.666 28.167 -267.999 66.5s-145.666 88.166 -198.999 149.499zM306.995 1018c0 -27.333 6 -51.6689 18 -73.002s30.167 -40 54.5 -56s50 -29.5 77 -40.5s59.833 -22.167 98.5 -33.5v418c-72.667 -5.33301 -132.167 -27.666 -178.5 -66.999
s-69.5 -88.666 -69.5 -147.999zM679.995 128.996c89.333 9.33301 155 36.832 197 82.499s63 96.834 63 153.501c0 32 -6.5 60.5 -19.5 85.5s-32.333 46.5 -58 64.5s-52.5 33 -80.5 45s-62 24 -102 36v-467z" />
    <glyph glyph-name="percent" unicode="%" horiz-adv-x="1499" 
d="M63 1047c0 98 30.833 179.001 92.5 243.001s140.834 96 237.501 96c97.333 0 176.666 -31.833 237.999 -95.5s92 -144.834 92 -243.501c0 -95.333 -30.667 -174.833 -92 -238.5s-140.666 -95.5 -237.999 -95.5c-96.667 0 -175.834 31.833 -237.501 95.5
s-92.5 143.167 -92.5 238.5zM186 1047c0 -65.333 19.498 -120 58.498 -164s88.5 -66 148.5 -66c60.667 0 110.334 22 149.001 66s58 98.667 58 164c0 68 -19.167 124.167 -57.5 168.5s-88.166 66.5 -149.499 66.5c-60 0 -109.5 -22.167 -148.5 -66.5
s-58.5 -100.5 -58.5 -168.5zM261.998 0.000976562l873 1366h114l-874 -1366h-113zM775.998 311.001c0 96 30.833 176.333 92.5 241s140.834 97 237.501 97c96 0 174.667 -32.333 236 -97s92 -145 92 -241s-30.5 -176 -91.5 -240s-139.833 -96 -236.5 -96
s-175.834 32 -237.501 96s-92.5 144 -92.5 240zM896.998 311.001c0 -66.667 19.333 -121.833 58 -165.5s89 -65.5 151 -65.5c60.667 0 110.334 22 149.001 66s58 99 58 165c0 67.333 -19.333 123.166 -58 167.499s-88.334 66.5 -149.001 66.5
c-62 0 -112.333 -22.167 -151 -66.5s-58 -100.166 -58 -167.499z" />
    <glyph glyph-name="ampersand" unicode="&#x26;" horiz-adv-x="1314" 
d="M76 356c0 51.333 7.83203 98.1699 23.499 140.503s38.667 79.833 69 112.5s61.5 60.667 93.5 84s70.333 47 115 71c-70 119.333 -105 221.666 -105 306.999c0 90 32.833 165 98.5 225s147.5 90 245.5 90c90.667 0 164.667 -23.667 222 -71s86 -113 86 -197
c0 -28.667 -3.83301 -55.834 -11.5 -81.501s-16.5 -48.334 -26.5 -68.001s-25.167 -39.667 -45.5 -60s-38.333 -37 -54 -50s-38.167 -28.333 -67.5 -46s-52.333 -31 -69 -40l-75 -39.5c40 -53.333 93.333 -118 160 -194c46.667 -56.667 100.667 -117.667 162 -183
c58.667 89.333 107.667 194 147 314l132 -60c-58.667 -142 -121 -259.333 -187 -352c84.667 -86.667 173.334 -172.667 266.001 -258h-213c-27.333 23.333 -77 71 -149 143c-112 -112 -243 -168 -393 -168c-58.667 0 -113.5 8.16699 -164.5 24.5s-95.833 40 -134.5 71
s-69.167 71 -91.5 120s-33.5 104.167 -33.5 165.5zM239.999 367.004c0 -81.333 26.833 -145.833 80.5 -193.5s118.834 -71.5 195.501 -71.5c101.333 0 196.333 45.333 285 136c-94 99.333 -157 168 -189 206c-68.667 79.333 -125.334 152 -170.001 218
c-64.667 -39.333 -114.5 -82 -149.5 -128s-52.5 -101.667 -52.5 -167zM429.999 1067c0 -64 27.334 -142.666 82.001 -235.999c43.333 21.333 78.333 40 105 56s54.167 35.667 82.5 59s49.166 48.666 62.499 75.999s20 57.333 20 90c0 48.667 -15 86.834 -45 114.501
s-68.667 41.5 -116 41.5c-53.333 0 -98.5 -18.833 -135.5 -56.5s-55.5 -85.834 -55.5 -144.501z" />
    <glyph glyph-name="quotesingle" unicode="'" horiz-adv-x="407" 
d="M111 1292c0 25.333 9 47.335 27 66.002s39.667 28 65 28c26 0 48.167 -9.16699 66.5 -27.5s27.5 -40.5 27.5 -66.5c0 -8.66699 -4.5 -50.334 -13.5 -125.001s-18.167 -147 -27.5 -217l-14 -106h-76c-36.667 279.333 -55 428.666 -55 447.999z" />
    <glyph glyph-name="parenleft" unicode="(" horiz-adv-x="507" 
d="M90 498c0 164 25 323.834 75 479.501s121.333 297.5 214 425.5l94 -70c-72.667 -142 -126.667 -276.5 -162 -403.5s-53 -270.833 -53 -431.5c0 -160 17.667 -303.833 53 -431.5s89.333 -261.834 162 -402.501l-94 -72c-92.667 128 -164 270 -214 426s-75 316 -75 480z
" />
    <glyph glyph-name="parenright" unicode=")" horiz-adv-x="507" 
d="M35 -336l94 -71.999c92.667 128 164 270 214 426s75 316 75 480s-25 323.833 -75 479.5s-121.333 297.5 -214 425.5l-94 -70c72.667 -142 126.667 -276.5 162 -403.5s53 -270.833 53 -431.5c0 -160 -17.667 -303.833 -53 -431.5s-89.333 -261.834 -162 -402.501z" />
    <glyph glyph-name="asterisk" unicode="*" horiz-adv-x="696" 
d="M70 985l209 107l-209 106l45 82l198 -129l-12 235h94l-12 -235l197 129l47 -82l-209 -106l209 -107l-47 -80l-197 127l12 -235h-94l12 235l-198 -127z" />
    <glyph glyph-name="plus" unicode="+" horiz-adv-x="1021" 
d="M59 637v106h394v424h116v-424h394v-106h-394v-436h-116v436h-394z" />
    <glyph glyph-name="comma" unicode="," horiz-adv-x="471" 
d="M117 -197c34 22 63.667 50.999 89 86.999s40 70.667 44 104c-5.33301 -2.66699 -15 -4 -29 -4c-27.333 0 -50.5 10 -69.5 30s-28.5 44.667 -28.5 74c0 30 10.5 56 31.5 78s46.5 33 76.5 33c36.667 0 67.334 -14.167 92.001 -42.5s37 -66.166 37 -113.499
c0 -60.667 -15.333 -118.5 -46 -173.5s-70.334 -100.167 -119.001 -135.5z" />
    <glyph glyph-name="hyphen" unicode="-" horiz-adv-x="614" 
d="M61 428v135h492v-135h-492z" />
    <glyph glyph-name="period" unicode="." horiz-adv-x="473" 
d="M123 92c0 30.667 11.167 57.167 33.5 79.5s48.833 33.5 79.5 33.5s57 -11.167 79 -33.5s33 -48.833 33 -79.5s-11 -57 -33 -79s-48.333 -33 -79 -33s-57.167 11 -79.5 33s-33.5 48.333 -33.5 79z" />
    <glyph glyph-name="slash" unicode="/" horiz-adv-x="606" 
d="M0 -41l485 1448h121l-485 -1448h-121z" />
    <glyph glyph-name="zero" unicode="0" horiz-adv-x="1253" 
d="M104 682c0 69.333 6 136.671 18 202.004s31.5 128.666 58.5 189.999s60.333 114.833 100 160.5s89.167 82.334 148.5 110.001s125.333 41.5 198 41.5c72 0 137.667 -13.833 197 -41.5s108.833 -64.334 148.5 -110.001s73 -99.167 100 -160.5s46.5 -124.833 58.5 -190.5
s18 -132.834 18 -201.501s-6 -135.834 -18 -201.501s-31.5 -129.334 -58.5 -191.001s-60.333 -115.5 -100 -161.5s-89.167 -83 -148.5 -111s-125 -42 -197 -42c-72.667 0 -138.667 14 -198 42s-108.833 65 -148.5 111s-73 100 -100 162s-46.5 125.667 -58.5 191
s-18 132.333 -18 201zM279 682.005c0 -72 6.16504 -139.5 18.498 -202.5s31.5 -121.667 57.5 -176s62.333 -97.333 109 -129s101 -47.5 163 -47.5s116.333 15.833 163 47.5s83 74.667 109 129s45.167 113 57.5 176s18.5 130.5 18.5 202.5c0 56.667 -3.66699 110.667 -11 162
s-19.666 101.166 -36.999 149.499s-39 90.166 -65 125.499s-59.167 63.5 -99.5 84.5s-85.5 31.5 -135.5 31.5s-95.167 -10.5 -135.5 -31.5s-73.5 -49.167 -99.5 -84.5s-47.667 -77.166 -65 -125.499s-29.666 -98.166 -36.999 -149.499s-11 -105.333 -11 -162z" />
    <glyph glyph-name="one" unicode="1" horiz-adv-x="694" 
d="M43 1014l342 352h150v-1366h-170v1143l-220 -234z" />
    <glyph glyph-name="two" unicode="2" horiz-adv-x="1204" 
d="M109 1171c51.333 68.667 118.833 121.666 202.5 158.999s174.5 56 272.5 56c58 0 113.833 -8.33301 167.5 -25s102.334 -41 146.001 -73s78.667 -74.167 105 -126.5s39.5 -111.166 39.5 -176.499c0 -54.667 -11.333 -110.167 -34 -166.5s-52 -109.5 -88 -159.5
s-84.333 -105.167 -145 -165.5s-120.334 -115.333 -179.001 -165l-217 -176.5h670v-152h-938v137l229 181.5l185 156c64 55.667 114.667 103.667 152 144s72 82.333 104 126s54.833 85 68.5 124s20.5 77.833 20.5 116.5c0 82 -28.167 144.167 -84.5 186.5
s-123.5 63.5 -201.5 63.5c-79.333 0 -150.5 -15.333 -213.5 -46s-115.5 -72.667 -157.5 -126z" />
    <glyph glyph-name="three" unicode="3" horiz-adv-x="1140" 
d="M59 201l100.998 106c41.333 -54.667 95.5 -98.334 162.5 -131.001s139.833 -49 218.5 -49c98.667 0 176.5 23 233.5 69s85.5 108.333 85.5 187c0 82 -30.333 142.833 -91 182.5s-143.667 59.5 -249 59.5c-80.667 0 -127.667 -0.666992 -141 -2v155
c15.333 -1.33301 62.333 -2 141 -2c92.667 0 168.834 18.833 228.501 56.5s89.5 93.834 89.5 168.501c0 73.333 -29.167 130.666 -87.5 171.999s-131.166 62 -218.499 62c-73.333 0 -138.833 -13.667 -196.5 -41s-112.167 -69 -163.5 -125l-94 107
c52 64 117.667 115 197 153s170 57 272 57c134.667 0 245.167 -32.333 331.5 -97s129.5 -153 129.5 -265c0 -47.333 -9.16699 -90.666 -27.5 -129.999s-42.333 -71.5 -72 -96.5s-60.834 -45 -93.501 -60s-66 -25.167 -100 -30.5c32.667 -3.33301 66.5 -12.5 101.5 -27.5
s68.833 -35.667 101.5 -62s59.5 -61.333 80.5 -105s31.5 -91.5 31.5 -143.5c0 -115.333 -43.833 -209.833 -131.5 -283.5s-205.5 -110.5 -353.5 -110.5c-110 0 -207.167 21.167 -291.5 63.5s-149.166 96.5 -194.499 162.5z" />
    <glyph glyph-name="four" unicode="4" horiz-adv-x="1142" 
d="M66 346v141l585 879h234v-870h192v-150h-192v-346h-170v346h-649zM236 496h479v712z" />
    <glyph glyph-name="five" unicode="5" horiz-adv-x="1208" 
d="M135 195l105.001 114c93.333 -121.333 218.666 -182 375.999 -182c92 0 167.667 27.833 227 83.5s89 125.5 89 209.5c0 89.333 -29.167 160.833 -87.5 214.5s-133.833 80.5 -226.5 80.5c-121.333 0 -226.333 -42.333 -315 -127l-125 43v735h836v-152h-666v-475
c36.667 36 83 65.5 139 88.5s116.333 34.5 181 34.5c58 0 113 -9.66699 165 -29s98.167 -46.833 138.5 -82.5s72.5 -81.5 96.5 -137.5s36 -118.333 36 -187c0 -135.333 -46.333 -244.333 -139 -327s-209 -124 -349 -124c-210 0 -370.333 73.333 -481 220z" />
    <glyph glyph-name="six" unicode="6" horiz-adv-x="1210" 
d="M104 682c0 75.333 6.83105 146.998 20.498 214.998s35.334 132 65.001 192s66 111.833 109 155.5s95.667 78.167 158 103.5s130.833 38 205.5 38c157.333 0 282.666 -54.333 375.999 -163l-86 -127c-38.667 45.333 -80.167 79.833 -124.5 103.5s-99.5 35.5 -165.5 35.5
c-51.333 0 -98.666 -10 -141.999 -30s-79.833 -47.167 -109.5 -81.5s-54.667 -74.5 -75 -120.5s-35.333 -94.667 -45 -146s-14.5 -104.333 -14.5 -159v-53c34 54 86.833 103 158.5 147s148.167 66 229.5 66c62 0 119.833 -9.16699 173.5 -27.5
s100.834 -45.166 141.501 -80.499s72.667 -81.166 96 -137.499s35 -119.833 35 -190.5c0 -59.333 -11.167 -115.833 -33.5 -169.5s-53.5 -101.167 -93.5 -142.5s-90.333 -74.166 -151 -98.499s-127 -36.5 -199 -36.5c-74.667 0 -142 12.667 -202 38
s-110 59.666 -150 102.999s-73.5 95.333 -100.5 156s-46.5 125 -58.5 193s-18 140.333 -18 217zM282.998 507.998c2.66699 -36 8.49902 -71 17.499 -105s22.5 -68 40.5 -102s39.5 -63.667 64.5 -89s56.333 -45.833 94 -61.5s79.5 -23.5 125.5 -23.5
c50.667 0 96.5 8.83301 137.5 26.5s73.833 40.834 98.5 69.501s43.667 59.667 57 93s20 66.666 20 99.999c0 96 -29.167 169.167 -87.5 219.5s-133.5 75.5 -225.5 75.5c-67.333 0 -131.666 -18.667 -192.999 -56s-111 -86.333 -149 -147z" />
    <glyph glyph-name="seven" unicode="7" horiz-adv-x="1054" 
d="M63 1214v152h932v-117l-559 -1249h-188l551 1214h-736z" />
    <glyph glyph-name="eight" unicode="8" horiz-adv-x="1191" 
d="M106 346c0 86 31.335 160.332 94.002 222.999s140 108 232 136c-56 16 -105.833 37.5 -149.5 64.5s-80.167 63.333 -109.5 109s-44 96.834 -44 153.501c0 59.333 13.5 112.166 40.5 158.499s63.167 83.333 108.5 111s95 48.667 149 63s110.333 21.5 169 21.5
c58 0 114.167 -7.16699 168.5 -21.5s104.333 -35.333 150 -63s82.167 -64.667 109.5 -111s41 -99.166 41 -158.499c0 -82.667 -28.833 -151.5 -86.5 -206.5s-130.5 -95.167 -218.5 -120.5c92 -27.333 169.167 -72.5 231.5 -135.5s93.5 -137.5 93.5 -223.5
c0 -112 -46.833 -201.833 -140.5 -269.5s-209.834 -101.5 -348.501 -101.5c-90.667 0 -172.834 14.5 -246.501 43.5s-132.667 72 -177 129s-66.5 123.167 -66.5 198.5zM279.002 364.999c0 -71.333 30.8311 -128.833 92.498 -172.5s136.5 -65.5 224.5 -65.5
c87.333 0 162 21.833 224 65.5s93 101.167 93 172.5c0 34 -8.33301 65.667 -25 95s-37.334 53.5 -62.001 72.5s-52.167 35.833 -82.5 50.5s-57.666 25.5 -81.999 32.5s-46.166 11.5 -65.499 13.5c-19.333 -2 -41.166 -6.5 -65.499 -13.5s-51.666 -17.833 -81.999 -32.5
s-57.833 -31.5 -82.5 -50.5s-45.334 -43.167 -62.001 -72.5s-25 -61 -25 -95zM301 1010c0 -31.333 7.83301 -60.166 23.5 -86.499s34.334 -47.666 56.001 -63.999s47.167 -31 76.5 -44s54.666 -22.333 75.999 -28s42.333 -10.167 63 -13.5
c20.667 3.33301 41.834 7.83301 63.501 13.5s47.167 15 76.5 28s55 27.667 77 44s40.833 37.666 56.5 63.999s23.5 55.166 23.5 86.499c0 68.667 -28.333 123.334 -85 164.001s-127.334 61 -212.001 61c-85.333 0 -155.833 -20.333 -211.5 -61s-83.5 -95.334 -83.5 -164.001
z" />
    <glyph glyph-name="nine" unicode="9" horiz-adv-x="1210" 
d="M100 942c0 59.333 11.167 115.832 33.5 169.499s53.666 101.167 93.999 142.5s91 74.166 152 98.499s127.833 36.5 200.5 36.5c74 0 141 -12.667 201 -38s110 -59.666 150 -102.999s73.5 -95.333 100.5 -156s46.5 -125 58.5 -193s18 -140.333 18 -217
c0 -75.333 -7 -147.166 -21 -215.499s-35.833 -132.333 -65.5 -192s-66 -111.5 -109 -155.5s-95.333 -78.667 -157 -104s-129.834 -38 -204.501 -38c-154.667 0 -281 54.667 -379 164l86 127c38.667 -45.333 80.667 -79.833 126 -103.5s101 -35.5 167 -35.5
s124.5 15.5 175.5 46.5s91.333 72.667 121 125s51.834 109.333 66.501 171s22 126.5 22 194.5c0 23.333 -0.666992 41 -2 53c-34 -54 -86.667 -103 -158 -147s-147 -66 -227 -66c-84 0 -159.167 15.667 -225.5 47s-120.166 80.5 -161.499 147.5s-62 147.5 -62 241.5z
M272 947.999c0 -96 29.499 -169.168 88.499 -219.501s134.833 -75.5 227.5 -75.5c66.667 0 131 18.833 193 56.5s111.667 87.167 149 148.5c-3.33301 36 -9.5 70.833 -18.5 104.5s-22.667 67.5 -41 101.5s-40 63.5 -65 88.5s-56.333 45.333 -94 61s-79.5 23.5 -125.5 23.5
c-50 0 -95.5 -8.83301 -136.5 -26.5s-74.167 -40.667 -99.5 -69s-44.666 -59.166 -57.999 -92.499s-20 -67 -20 -101z" />
    <glyph glyph-name="colon" unicode=":" horiz-adv-x="460" 
d="M123 92c0 30.667 11.167 57.167 33.5 79.5s48.833 33.5 79.5 33.5s57 -11.167 79 -33.5s33 -48.833 33 -79.5s-11 -57 -33 -79s-48.333 -33 -79 -33s-57.167 11 -79.5 33s-33.5 48.333 -33.5 79zM123 891c0 30.667 11.167 57.167 33.5 79.5s48.833 33.5 79.5 33.5
s57 -11.167 79 -33.5s33 -48.833 33 -79.5c0 -30 -11.167 -56.333 -33.5 -79s-48.5 -34 -78.5 -34s-56.333 11.333 -79 34s-34 49 -34 79z" />
    <glyph glyph-name="semicolon" unicode=";" horiz-adv-x="471" 
d="M117 -195c33.333 22 62.8311 51.332 88.498 87.999s40.5 71.667 44.5 105c-5.33301 -2.66699 -15 -4 -29 -4c-28 0 -51.333 9.83301 -70 29.5s-28 44.5 -28 74.5s10.5 56 31.5 78s46.5 33 76.5 33c36.667 0 67.334 -14.167 92.001 -42.5s37 -66.166 37 -113.499
c0 -61.333 -15.167 -119.333 -45.5 -174s-70.166 -99.667 -119.499 -135zM122.998 890.999c0 30.667 11.167 57.167 33.5 79.5s48.833 33.5 79.5 33.5s57 -11.167 79 -33.5s33 -48.833 33 -79.5c0 -30 -11.167 -56.333 -33.5 -79s-48.5 -34 -78.5 -34s-56.333 11.333 -79 34
s-34 49 -34 79z" />
    <glyph glyph-name="less" unicode="&#x3c;" horiz-adv-x="1021" 
d="M59 631v108l904 449v-129l-773 -375l773 -371v-129z" />
    <glyph glyph-name="equal" unicode="=" horiz-adv-x="1021" 
d="M59 432v109h904v-109h-904zM59 827v109h904v-109h-904z" />
    <glyph glyph-name="greater" unicode="&#x3e;" horiz-adv-x="1021" 
d="M59 184v129l772 371l-772 375v129l904 -449v-108z" />
    <glyph glyph-name="question" unicode="?" horiz-adv-x="946" 
d="M37 1178c50 66 112.667 117.168 188 153.501s160.666 54.5 255.999 54.5c122 0 219.5 -30.167 292.5 -90.5s109.5 -135.833 109.5 -226.5c0 -42 -7.33301 -80.667 -22 -116s-33.667 -65.5 -57 -90.5s-49 -48.5 -77 -70.5s-56 -42.667 -84 -62s-53.667 -38.5 -77 -57.5
s-42.333 -40.5 -57 -64.5s-22 -49.333 -22 -76c0 -39.333 18 -72 54 -98l-125 -55c-52 44.667 -78 100.667 -78 168c0 35.333 6.83301 67.833 20.5 97.5s31.334 55.334 53.001 77.001s45.5 42.167 71.5 61.5l78.5 56.5c26.333 18.333 50.333 37 72 56
s39.334 41.167 53.001 66.5s20.5 52.666 20.5 81.999c0 54 -20.833 99.333 -62.5 136s-100.834 55 -177.501 55c-74 0 -137 -14.333 -189 -43s-98.333 -70.334 -139 -125.001zM346 92.001c0 30.667 11.167 57.167 33.5 79.5s48.833 33.5 79.5 33.5s57 -11.167 79 -33.5
s33 -48.833 33 -79.5s-11 -57 -33 -79s-48.333 -33 -79 -33s-57.167 11 -79.5 33s-33.5 48.333 -33.5 79z" />
    <glyph glyph-name="at" unicode="@" horiz-adv-x="1603" 
d="M72 500c0 108 22.499 212 67.499 312s104.667 186 179 258s161.166 129.5 260.499 172.5s201.333 64.5 306 64.5c126 0 238.5 -29.333 337.5 -88s175 -137.167 228 -235.5s79.5 -207.166 79.5 -326.499c0 -76.667 -10.333 -146.334 -31 -209.001s-48 -113.5 -82 -152.5
s-71.667 -69 -113 -90s-84 -31.5 -128 -31.5c-54.667 0 -98.667 16.167 -132 48.5s-51.666 71.5 -54.999 117.5v14c-37.333 -53.333 -85 -96.666 -143 -129.999s-118.667 -50 -182 -50c-94.667 0 -170.667 30.667 -228 92s-86 142 -86 242c0 69.333 13.833 136 41.5 200
s63.834 118.833 108.501 164.5s96 82 154 109s117 40.5 177 40.5c63.333 0 117.833 -15 163.5 -45s78.834 -68.333 99.501 -115l26 127h140l-117 -555c-2.66699 -16 -4 -30.333 -4 -43c0 -32.667 9.16699 -58.5 27.5 -77.5s41.166 -28.5 68.499 -28.5
c17.333 0 35.333 3.66699 54 11s38.334 20.333 59.001 39s39 41.5 55 68.5s29.167 62.5 39.5 106.5s15.5 93 15.5 147c0 169.333 -53.333 308.333 -160 417s-246.334 163 -419.001 163c-96.667 0 -190.5 -20.333 -281.5 -61s-169.667 -94.5 -236 -161.5
s-119.333 -145.333 -159 -235s-59.5 -181.5 -59.5 -275.5c0 -108 25 -206.333 75 -295s119.833 -158.334 209.5 -209.001s190.167 -76 301.5 -76c132.667 0 259.667 38.333 381 115l37 -53c-133.333 -86 -275.333 -129 -426 -129c-122 0 -232.667 28.333 -332 85
s-177 134 -233 232s-84 206.667 -84 326zM497.999 516c0 -67.333 18.5 -122 55.5 -164s88.167 -63 153.5 -63c63.333 0 120.833 17.833 172.5 53.5s95.167 79.167 130.5 130.5l59 285c-14 38.667 -39 73.167 -75 103.5s-81.333 45.5 -136 45.5
c-100 0 -185 -39.667 -255 -119s-105 -170 -105 -272z" />
    <glyph glyph-name="A" unicode="A" horiz-adv-x="1347" 
d="M18 0l551 1366h211l549 -1366h-194l-121 305h-680l-121 -305h-195zM385 455h580l-291 737z" />
    <glyph glyph-name="B" unicode="B" horiz-adv-x="1288" 
d="M160 0l-0.000976562 1366h608c117.333 0 210.5 -32 279.5 -96s103.5 -148 103.5 -252c0 -82 -23.333 -151 -70 -207s-103.334 -91.333 -170.001 -106c72.667 -11.333 135.334 -49.833 188.001 -115.5s79 -139.167 79 -220.5c0 -111.333 -35.167 -200.666 -105.5 -267.999
s-167.166 -101 -290.499 -101h-622zM329.999 151.999h420c78.667 0 140.167 21 184.5 63s66.5 99.333 66.5 172c0 66.667 -22 122.667 -66 168s-105.667 68 -185 68h-420v-471zM329.999 773.999l409 -0.000976562c74.667 0 132.667 20.333 174 61s62 93.334 62 158.001
c0 64 -20.667 116.833 -62 158.5s-99.333 62.5 -174 62.5h-409v-440z" />
    <glyph glyph-name="C" unicode="C" horiz-adv-x="1384" 
d="M104 682c0 102.667 18.333 198.333 55 287s86.334 163.5 149.001 224.5s137.167 108.833 223.5 143.5s178.166 52 275.499 52c219.333 0 392 -90.333 518 -271l-141 -80c-40 60 -93.667 108.167 -161 144.5s-139.333 54.5 -216 54.5c-150.667 0 -276 -51.833 -376 -155.5
s-150 -236.834 -150 -399.501c0 -106 23 -201.5 69 -286.5s109 -151 189 -198s169.333 -70.5 268 -70.5c76 0 147.833 18.333 215.5 55s121.5 84.667 161.5 144l143 -78c-132.667 -182 -306 -273 -520 -273c-97.333 0 -189.166 17.333 -275.499 52
s-160.833 82.5 -223.5 143.5s-112.334 135.833 -149.001 224.5s-55 184.334 -55 287.001z" />
    <glyph glyph-name="D" unicode="D" horiz-adv-x="1433" 
d="M160 0l0.000976562 1366h467c138.667 0 261.667 -30.167 369 -90.5s189.333 -142.166 246 -245.499s85 -219.333 85 -348c0 -96.667 -16.667 -186.834 -50 -270.501s-80 -155.834 -140 -216.501s-133.833 -108.334 -221.5 -143.001s-183.834 -52 -288.501 -52h-467z
M330.001 152.002h296.999c107.333 0 201.333 24 282 72s141.167 111.667 181.5 191s60.5 168.333 60.5 267c0 100 -19.833 189.667 -59.5 269s-99.667 143 -180 191s-175.166 72 -284.499 72h-297v-1062z" />
    <glyph glyph-name="E" unicode="E" horiz-adv-x="1165" 
d="M160 0v1366h895v-152h-725v-440h710v-151h-710v-471h725v-152h-895z" />
    <glyph glyph-name="F" unicode="F" horiz-adv-x="1128" 
d="M160 0v1366h895v-152h-725v-440h710v-151h-710v-623h-170z" />
    <glyph glyph-name="G" unicode="G" horiz-adv-x="1460" 
d="M104 682c0 104 18.501 200.501 55.501 289.501s87 163.833 150 224.5s137.5 108 223.5 142s177.333 51 274 51c216 0 392.667 -84.667 530 -254l-135 -86c-44 57.333 -100.833 103 -170.5 137s-144.5 51 -224.5 51c-150.667 0 -276 -51.833 -376 -155.5
s-150 -236.834 -150 -399.501c0 -106 23 -201.5 69 -286.5s109 -151 189 -198s169.333 -70.5 268 -70.5c75.333 0 145.666 14.5 210.999 43.5s118 63.5 158 103.5v277h-471v151h638v-491c-66 -74 -144.833 -132.167 -236.5 -174.5s-191.5 -63.5 -299.5 -63.5
c-96.667 0 -188 17.167 -274 51.5s-160.5 82 -223.5 143s-113 136 -150 225s-55.5 185.5 -55.5 289.5z" />
    <glyph glyph-name="H" unicode="H" horiz-adv-x="1458" 
d="M160 0v1366h170v-588h798v588h170v-1366h-170v627h-798v-627h-170z" />
    <glyph glyph-name="I" unicode="I" horiz-adv-x="489" 
d="M160 0v1366h170v-1366h-170z" />
    <glyph glyph-name="J" unicode="J" horiz-adv-x="972" 
d="M23 133l90.001 129c71.333 -90 156.666 -135 255.999 -135c83.333 0 149.833 26.333 199.5 79s74.5 122 74.5 208v952h170v-954c0 -95.333 -19.5 -176.5 -58.5 -243.5s-90.5 -116 -154.5 -147s-137.667 -46.5 -221 -46.5c-148 0 -266.667 52.667 -356 158z" />
    <glyph glyph-name="K" unicode="K" horiz-adv-x="1230" 
d="M160 0v1366h170v-704l604 704h213l-569 -647l620 -719h-213l-518 614l-137 -155v-459h-170z" />
    <glyph glyph-name="L" unicode="L" horiz-adv-x="1009" 
d="M137 0v1366h170v-1214h635v-152h-805z" />
    <glyph glyph-name="M" unicode="M" horiz-adv-x="1656" 
d="M160 0v1366h243l426 -1053l424 1053h244v-1366h-170v1149l-463 -1149h-69l-465 1149v-1149h-170z" />
    <glyph glyph-name="N" unicode="N" horiz-adv-x="1449" 
d="M160 0v1366h174l786 -1067v1067h170v-1366h-164l-796 1090v-1090h-170z" />
    <glyph glyph-name="O" unicode="O" horiz-adv-x="1566" 
d="M104 682c0 133.333 28.167 253.666 84.5 360.999s136.333 191.833 240 253.5s221.5 92.5 353.5 92.5s250 -30.833 354 -92.5s184.333 -146.167 241 -253.5s85 -227.666 85 -360.999s-28.333 -253.666 -85 -360.999s-137 -191.833 -241 -253.5s-222 -92.5 -354 -92.5
s-249.833 30.833 -353.5 92.5s-183.667 146.167 -240 253.5s-84.5 227.666 -84.5 360.999zM281 682c0 -105.333 20.167 -199.999 60.5 -283.999s98.833 -150.167 175.5 -198.5s165 -72.5 265 -72.5s188.5 24.167 265.5 72.5s136 114.5 177 198.5s61.5 178.667 61.5 284
c0 161.333 -46.333 294.166 -139 398.499s-214.334 156.5 -365.001 156.5c-151.333 0 -272.666 -52 -363.999 -156s-137 -237 -137 -399z" />
    <glyph glyph-name="P" unicode="P" horiz-adv-x="1202" 
d="M160 0v1366h549c132 0 236.333 -39.5 313 -118.5s115 -176.833 115 -293.5c0 -116 -38.5 -213.5 -115.5 -292.5s-181.167 -118.5 -312.5 -118.5h-379v-543h-170zM330 694h358c80.667 0 146.334 24 197.001 72s76 110.667 76 188s-25.333 140 -76 188
s-116.334 72 -197.001 72h-358v-520z" />
    <glyph glyph-name="Q" unicode="Q" horiz-adv-x="1566" 
d="M104 682c0 133.333 28.167 253.667 84.5 361s136.333 191.833 240 253.5s221.5 92.5 353.5 92.5s250 -30.833 354 -92.5s184.333 -146.167 241 -253.5s85 -227.666 85 -360.999c0 -203.333 -62.667 -372 -188 -506l129 -137l-117 -102l-133 141
c-106 -68.667 -229.667 -103 -371 -103c-132 0 -249.833 30.833 -353.5 92.5s-183.667 146.167 -240 253.5s-84.5 227.666 -84.5 360.999zM281 682.001c0 -105.333 20.166 -199.999 60.499 -283.999s98.833 -150.167 175.5 -198.5s165 -72.5 265 -72.5
c96.667 0 183.334 23.333 260.001 70l-194 211l119 100l192 -209c84.667 104 127 231.667 127 383c0 161.333 -46.333 294.166 -139 398.499s-214.334 156.5 -365.001 156.5c-151.333 0 -272.666 -52 -363.999 -156s-137 -237 -137 -399z" />
    <glyph glyph-name="R" unicode="R" horiz-adv-x="1247" 
d="M160 0l-0.00195312 1366h549c126.667 0 230 -37.5 310 -112.5s120 -174.833 120 -299.5c0 -59.333 -9.83301 -113.666 -29.5 -162.999s-46.167 -90.166 -79.5 -122.499s-71.166 -58 -113.499 -77s-87.166 -30.5 -134.499 -34.5l369 -557h-201l-346 543h-274v-543h-170z
M329.998 691.998h358c80.667 0 146.667 24.333 198 73s77 111.667 77 189s-25.5 140 -76.5 188s-117.167 72 -198.5 72h-358v-522z" />
    <glyph glyph-name="S" unicode="S" horiz-adv-x="1200" 
d="M78 193l102 131.005c49.333 -57.333 110.5 -104.5 183.5 -141.5s154.5 -55.5 244.5 -55.5c58 0 108.833 7.33301 152.5 22s77.334 34 101.001 58s41 49.167 52 75.5s16.5 53.833 16.5 82.5c0 37.333 -9.16699 70.166 -27.5 98.499s-43.166 51.333 -74.499 69
s-67.166 33.334 -107.499 47.001s-82.833 26.5 -127.5 38.5l-134.5 37c-45 12.667 -87.667 28.667 -128 48s-76.166 41.833 -107.499 67.5s-56.166 58.667 -74.499 99s-27.5 86.5 -27.5 138.5c0 112 44.5 203.5 133.5 274.5s201.5 106.5 337.5 106.5
c200 0 361 -64.333 483 -193l-102 -125c-96.667 109.333 -228.334 164 -395.001 164c-81.333 0 -148.5 -20.167 -201.5 -60.5s-79.5 -92.5 -79.5 -156.5c0 -32.667 9.16699 -61.334 27.5 -86.001s43.166 -44.834 74.499 -60.501s67.166 -29.834 107.499 -42.501
s83 -25 128 -37s89.833 -24.833 134.5 -38.5s87.167 -31 127.5 -52s76.166 -45.333 107.499 -73s56.166 -62.834 74.499 -105.501s27.5 -91.334 27.5 -146.001c0 -52 -9.33301 -101 -28 -147s-47 -88.5 -85 -127.5s-90.5 -70 -157.5 -93s-144.833 -34.5 -233.5 -34.5
c-112.667 0 -213.167 19.5 -301.5 58.5s-162.5 92.167 -222.5 159.5z" />
    <glyph glyph-name="T" unicode="T" horiz-adv-x="1167" 
d="M66 1214v152h1036v-152h-434v-1214h-170v1214h-432z" />
    <glyph glyph-name="U" unicode="U" horiz-adv-x="1435" 
d="M160 530v835.998h172v-831c0 -127.333 33.167 -227.166 99.5 -299.499s161.5 -108.5 285.5 -108.5s219.5 36.333 286.5 109s100.5 172.334 100.5 299.001v831h172v-834c0 -174 -47.667 -310.333 -143 -409s-234 -148 -416 -148c-180.667 0 -318.667 49.5 -414 148.5
s-143 234.5 -143 406.5z" />
    <glyph glyph-name="V" unicode="V" horiz-adv-x="1347" 
d="M18 1366h195l461 -1180l461 1180h194l-549 -1366h-211z" />
    <glyph glyph-name="W" unicode="W" horiz-adv-x="1808" 
d="M29 1366h188l303 -1139l314 1139h141l313 -1139l301 1139h191l-391 -1366h-185l-301 1102l-301 -1102h-184z" />
    <glyph glyph-name="X" unicode="X" horiz-adv-x="1335" 
d="M25 0l532 700l-502 666h207l406 -545l403 545h209l-502 -664l533 -702h-207l-436 582l-437 -582h-206z" />
    <glyph glyph-name="Y" unicode="Y" horiz-adv-x="1282" 
d="M18 1366h199l424 -635l424 635h199l-537 -788v-578h-170v578z" />
    <glyph glyph-name="Z" unicode="Z" horiz-adv-x="1198" 
d="M98 0v141l768 1073h-768v152h987v-141l-770 -1073h785v-152h-1002z" />
    <glyph glyph-name="bracketleft" unicode="[" horiz-adv-x="497" 
d="M82 -389v1778h381v-113h-260v-1552h260v-113h-381z" />
    <glyph glyph-name="backslash" unicode="\" horiz-adv-x="606" 
d="M0 1407h121l485 -1448h-121z" />
    <glyph glyph-name="bracketright" unicode="]" horiz-adv-x="497" 
d="M35 -276h262v1552h-262v113h383v-1778h-383v113z" />
    <glyph glyph-name="asciicircum" unicode="^" horiz-adv-x="884" 
d="M39 682l346 684h117l344 -684h-127l-277 571l-276 -571h-127z" />
    <glyph glyph-name="underscore" unicode="_" horiz-adv-x="1155" 
d="M-6 -82h1167v-113h-1167v113z" />
    <glyph glyph-name="a" unicode="a" horiz-adv-x="1081" 
d="M100 303c0 53.333 9.99902 101.501 29.999 144.501s46.5 77.333 79.5 103s69.5 45.167 109.5 58.5s81.667 20 125 20c140 0 249.333 -44.333 328 -133v178c0 64 -23.333 114.5 -70 151.5s-106.667 55.5 -180 55.5c-117.333 0 -218.333 -46 -303 -138l-72 107
c104.667 109.333 236.667 164 396 164c54.667 0 104.5 -6.33301 149.5 -19s85.167 -31.834 120.5 -57.501s63 -60.5 83 -104.5s30 -95 30 -153v-680h-154v113c-82 -92 -191.333 -138 -328 -138c-42 0 -83.167 7.16699 -123.5 21.5s-77.166 34.833 -110.499 61.5
s-60 61.167 -80 103.5s-30 89.5 -30 141.5zM255.999 303.001c0 -63.333 22.832 -115.333 68.499 -156s104.834 -61 177.501 -61c54.667 0 106.167 10.5 154.5 31.5s86.833 51.5 115.5 91.5v188c-28.667 38.667 -67.167 68.5 -115.5 89.5s-99.833 31.5 -154.5 31.5
c-72 0 -131 -20.167 -177 -60.5s-69 -91.833 -69 -154.5z" />
    <glyph glyph-name="b" unicode="b" horiz-adv-x="1177" 
d="M154 0l-0.000976562 1366h153v-526c40 54.667 89.167 97.334 147.5 128.001s120.5 46 186.5 46c130.667 0 236.667 -47.333 318 -142s122 -220.667 122 -378c0 -158.667 -40.667 -284.834 -122 -378.501s-187.333 -140.5 -318 -140.5
c-67.333 0 -130.166 15.667 -188.499 47s-106.833 73 -145.5 125v-147h-153zM306.999 268c27.333 -44 68.667 -80.833 124 -110.5s113 -44.5 173 -44.5c97.333 0 174.666 35.5 231.999 106.5s86 162.5 86 274.5s-28.667 203.833 -86 275.5s-134.666 107.5 -231.999 107.5
c-59.333 0 -116.833 -15.5 -172.5 -46.5s-97.167 -68.833 -124.5 -113.5v-449z" />
    <glyph glyph-name="c" unicode="c" horiz-adv-x="1015" 
d="M96 496c0 97.333 20.498 185.166 61.498 263.499s99.167 140.333 174.5 186s161.333 68.5 258 68.5c152.667 0 273.334 -57.333 362.001 -172l-102 -92c-62 84.667 -146 127 -252 127c-103.333 0 -186.166 -35.667 -248.499 -107s-93.5 -162.666 -93.5 -273.999
s31.333 -203 94 -275s145.334 -108 248.001 -108c103.333 0 187.333 43 252 129l102 -95c-88.667 -114.667 -209.334 -172 -362.001 -172c-145.333 0 -264 49.667 -356 149s-138 223.333 -138 372z" />
    <glyph glyph-name="d" unicode="d" horiz-adv-x="1177" 
d="M96 494c0 156.667 41 282.5 123 377.5s188 142.5 318 142.5c66 0 127.833 -15.333 185.5 -46s106.834 -73.334 147.501 -128.001v526h154v-1366h-154v147c-38.667 -52 -87 -93.667 -145 -125s-120.667 -47 -188 -47c-130.667 0 -236.834 46.833 -318.501 140.5
s-122.5 219.834 -122.5 378.501zM256 494c0 -112 28.499 -203.5 85.499 -274.5s134.833 -106.5 233.5 -106.5c59.333 0 116.5 15.167 171.5 45.5s96.167 67.5 123.5 111.5v447c-27.333 44.667 -68.666 82.5 -123.999 113.5s-112.333 46.5 -171 46.5
c-98 0 -175.667 -35.833 -233 -107.5s-86 -163.5 -86 -275.5z" />
    <glyph glyph-name="e" unicode="e" horiz-adv-x="1153" 
d="M96 496c0 94.667 20.8301 181.499 62.4971 260.499s99.834 141.667 174.501 188s158.334 69.5 251.001 69.5c97.333 0 182.333 -23.667 255 -71s127.5 -110.833 164.5 -190.5s55.5 -169.5 55.5 -269.5v-39h-799c6 -97.333 40.833 -178.666 104.5 -243.999
s146.834 -98 249.501 -98c58 0 113.833 11 167.5 33s100.5 53.333 140.5 94l73 -100c-104.667 -102.667 -235.667 -154 -393 -154c-148 0 -269.333 48.333 -364 145s-142 222 -142 376zM257.997 558.999l649.001 0.000976562c-0.666992 38 -7.5 75.667 -20.5 113
s-32.167 72.333 -57.5 105s-59.333 59.167 -102 79.5s-91 30.5 -145 30.5c-50.667 0 -96.667 -10 -138 -30s-74.833 -46.167 -100.5 -78.5s-45.834 -67.333 -60.501 -105s-23 -75.834 -25 -114.501z" />
    <glyph glyph-name="f" unicode="f" horiz-adv-x="581" 
d="M33 854v134.998h164v76c0 100.667 25.667 179.334 77 236.001s121 85 209 85c86 0 155.667 -25 209 -75l-63 -99c-36.667 32 -77 48 -121 48c-51.333 0 -90.5 -16.667 -117.5 -50s-40.5 -81.666 -40.5 -144.999v-76h201v-135h-201v-854h-153v854h-164z" />
    <glyph glyph-name="g" unicode="g" horiz-adv-x="1177" 
d="M96 500c0 156.667 40.666 281.501 121.999 374.501s187.666 139.5 318.999 139.5c66 0 127.833 -15.333 185.5 -46s106.834 -73.334 147.501 -128.001v149h154v-975c0 -75.333 -13 -140.666 -39 -195.999s-61.833 -98.5 -107.5 -129.5s-95.5 -53.667 -149.5 -68
s-113 -21.5 -177 -21.5c-86.667 0 -160.5 10.667 -221.5 32s-120.167 60.333 -177.5 117l77 111c40.667 -47.333 86.5 -81.333 137.5 -102s112.5 -31 184.5 -31c90.667 0 166.5 23.667 227.5 71s91.5 119.666 91.5 216.999v150
c-38.667 -52.667 -87.167 -95.167 -145.5 -127.5s-120.833 -48.5 -187.5 -48.5c-131.333 0 -237.666 46 -318.999 138s-122 216.667 -122 374zM255.999 500.001c0 -110.667 28.498 -200.833 85.498 -270.5s134.833 -104.5 233.5 -104.5c58.667 0 115.334 15.5 170.001 46.5
s96.334 68.833 125.001 113.5v434c-28.667 44 -70.5 81.333 -125.5 112s-111.5 46 -169.5 46c-98.667 0 -176.5 -34.833 -233.5 -104.5s-85.5 -160.5 -85.5 -272.5z" />
    <glyph glyph-name="h" unicode="h" horiz-adv-x="1130" 
d="M156 0l-0.000976562 1366h153v-520c37.333 46 87.833 85.5 151.5 118.5s130.834 49.5 201.501 49.5c210 0 315 -105.333 315 -316v-698h-154v651c0 83.333 -19 141.833 -57 175.5s-93.333 50.5 -166 50.5c-56.667 0 -111.667 -15 -165 -45s-95.333 -66.333 -126 -109
v-723h-153z" />
    <glyph glyph-name="i" unicode="i" horiz-adv-x="460" 
d="M127 1233c0 28.667 10.167 53.167 30.5 73.5s44.833 30.5 73.5 30.5s53 -10.167 73 -30.5s30 -44.833 30 -73.5s-10 -53 -30 -73s-44.333 -30 -73 -30s-53.167 10 -73.5 30s-30.5 44.333 -30.5 73zM154 0v989h153v-989h-153z" />
    <glyph glyph-name="j" unicode="j" horiz-adv-x="460" 
d="M-201 -328l54 115c40.667 -40.667 87.667 -61 141 -61c48.667 0 87.5 14.667 116.5 44s43.5 74 43.5 134v1085h153v-1085c0 -98 -25.167 -173.333 -75.5 -226s-122.833 -79 -217.5 -79c-48 0 -87.833 5.66699 -119.5 17s-63.5 30 -95.5 56zM127 1233
c0 28.667 10.167 53.167 30.5 73.5s44.833 30.5 73.5 30.5s53 -10.167 73 -30.5s30 -44.833 30 -73.5s-10 -53 -30 -73s-44.333 -30 -73 -30s-53.167 10 -73.5 30s-30.5 44.333 -30.5 73z" />
    <glyph glyph-name="k" unicode="k" horiz-adv-x="1052" 
d="M154 0v1366h153v-903l520 526h195l-438 -448l440 -541h-197l-354 444l-166 -161v-283h-153z" />
    <glyph glyph-name="l" unicode="l" horiz-adv-x="460" 
d="M154 0v1366h153v-1366h-153z" />
    <glyph glyph-name="m" unicode="m" horiz-adv-x="1654" 
d="M154 0l-0.00390625 988.999h153v-143c26.667 38.667 70.334 76.334 131.001 113.001s124.334 55 191.001 55c71.333 0 129.333 -17.167 174 -51.5s74.667 -78.833 90 -133.5c30 48.667 76 91.667 138 129s126.667 56 194 56c90.667 0 159.334 -25 206.001 -75
s70 -124.667 70 -224v-715h-153v672c0 136.667 -61 205 -183 205c-49.333 0 -98.666 -14.833 -147.999 -44.5s-87.333 -65.5 -114 -107.5v-725h-153v672c0 136.667 -61 205 -183 205c-48 0 -96.333 -15.167 -145 -45.5s-87 -66.5 -115 -108.5v-723h-153z" />
    <glyph glyph-name="n" unicode="n" horiz-adv-x="1130" 
d="M154 0v989h153v-143c38.667 46 90 85.5 154 118.5s131 49.5 201 49.5c208.667 0 313 -106.667 313 -320v-694h-152v647c0 83.333 -19.333 142.5 -58 177.5s-93.667 52.5 -165 52.5c-57.333 0 -112.5 -15 -165.5 -45s-95.5 -66.333 -127.5 -109v-723h-153z" />
    <glyph glyph-name="o" unicode="o" 
d="M96 496c0 96 19.667 183 59 261s96.5 140.333 171.5 187s161.5 70 259.5 70s184.5 -23.333 259.5 -70s132 -109 171 -187s58.5 -165 58.5 -261s-19.5 -183.333 -58.5 -262s-96 -141.5 -171 -188.5s-161.5 -70.5 -259.5 -70.5s-184.5 23.5 -259.5 70.5
s-132.167 109.833 -171.5 188.5s-59 166 -59 262zM258 496c0 -106.667 29.334 -197.168 88.001 -271.501s138.667 -111.5 240 -111.5c68 0 127.167 18 177.5 54s87.833 82.5 112.5 139.5s37 120.167 37 189.5c0 68.667 -12.333 131.334 -37 188.001s-62.167 103 -112.5 139
s-109.5 54 -177.5 54s-127.333 -18 -178 -54s-88.334 -82.5 -113.001 -139.5s-37 -119.5 -37 -187.5z" />
    <glyph glyph-name="p" unicode="p" 
d="M154 -377v1366h153v-147c37.333 52 85.5 93.667 144.5 125s122.167 47 189.5 47c131.333 0 237.5 -46.5 318.5 -139.5s121.5 -219.167 121.5 -378.5c0 -158 -40.5 -284.333 -121.5 -379s-187.167 -142 -318.5 -142c-66.667 0 -128.5 15.333 -185.5 46
s-106.5 73.667 -148.5 129v-527h-153zM307 272c27.333 -44.667 68.666 -82.333 123.999 -113s112.333 -46 171 -46c97.333 0 174.666 35.833 231.999 107.5s86 163.5 86 275.5s-28.667 203.5 -86 274.5s-134.666 106.5 -231.999 106.5c-58.667 0 -115.667 -15.333 -171 -46
s-96.666 -68 -123.999 -112v-447z" />
    <glyph glyph-name="q" unicode="q" 
d="M90 496c0 159.333 40.5 285.5 121.5 378.5s187.167 139.5 318.5 139.5c67.333 0 130.5 -15.667 189.5 -47s107.167 -73 144.5 -125v147h154v-1366h-154v527c-42 -55.333 -91.5 -98.333 -148.5 -129s-118.833 -46 -185.5 -46c-131.333 0 -237.5 47.333 -318.5 142
s-121.5 221 -121.5 379zM252 496c0 -112 28.5 -203.834 85.5 -275.501s134.167 -107.5 231.5 -107.5c58.667 0 115.667 15.333 171 46s96.666 68.334 123.999 113.001v447c-27.333 44 -68.666 81.333 -123.999 112s-112.333 46 -171 46
c-97.333 0 -174.5 -35.5 -231.5 -106.5s-85.5 -162.5 -85.5 -274.5z" />
    <glyph glyph-name="r" unicode="r" horiz-adv-x="675" 
d="M154 0l-0.00195312 989h153v-158c42.667 54.667 92.334 98.5 149.001 131.5s117 49.5 181 49.5v-158c-24 2.66699 -43.667 4 -59 4c-47.333 0 -98.666 -16.167 -153.999 -48.5s-94.333 -68.833 -117 -109.5v-700h-153z" />
    <glyph glyph-name="s" unicode="s" horiz-adv-x="952" 
d="M70 131l76.9971 111.004c35.333 -40 82.333 -73.667 141 -101s120.334 -41 185.001 -41c74 0 131.833 15.667 173.5 47s62.5 72.333 62.5 123c0 32 -11.333 59 -34 81s-52 39 -88 51s-75.667 23 -119 33s-86.833 21.667 -130.5 35s-83.5 29.666 -119.5 48.999
s-65.333 46.833 -88 82.5s-34 78.167 -34 127.5c0 81.333 32.667 149.166 98 203.499s155 81.5 269 81.5c150.667 0 272.667 -48 366 -144l-71 -106c-30.667 37.333 -71.834 67.5 -123.501 90.5s-108.834 34.5 -171.501 34.5c-66 0 -119 -14.833 -159 -44.5
s-60 -66.834 -60 -111.501c0 -28.667 11.333 -52.834 34 -72.501s51.834 -35 87.501 -46s75.334 -21.333 119.001 -31s87.334 -21.5 131.001 -35.5s83.334 -31.167 119.001 -51.5s64.834 -49.5 87.501 -87.5s34 -83 34 -135c0 -86.667 -33.833 -158.167 -101.5 -214.5
s-162.834 -84.5 -285.501 -84.5c-166 0 -299 52 -399 156z" />
    <glyph glyph-name="t" unicode="t" horiz-adv-x="602" 
d="M20 854l0.00195312 135h164v271h156v-271h201v-135h-201v-614c0 -38.667 8.33301 -69.5 25 -92.5s41 -34.5 73 -34.5c45.333 0 80.333 14.333 105 43l45 -117c-44.667 -42.667 -105.334 -64 -182.001 -64c-72.667 0 -127.834 20.167 -165.501 60.5
s-56.5 97.5 -56.5 171.5v647h-164z" />
    <glyph glyph-name="u" unicode="u" horiz-adv-x="1128" 
d="M154 291l0.000976562 698.001h153v-651c0 -82.667 19 -140.834 57 -174.501s93.333 -50.5 166 -50.5c57.333 0 112.666 14.333 165.999 43s95 64 125 106v727h154v-989h-154v139c-41.333 -46.667 -93 -85.667 -155 -117s-127.667 -47 -197 -47
c-210 0 -315 105.333 -315 316z" />
    <glyph glyph-name="v" unicode="v" horiz-adv-x="1003" 
d="M6 989h168l328 -811l329 811h166l-411 -989h-168z" />
    <glyph glyph-name="w" unicode="w" horiz-adv-x="1503" 
d="M25 989h159l242 -788l260 788h133l258 -788l242 788h162l-316 -989h-155l-258 795l-258 -795h-154z" />
    <glyph glyph-name="x" unicode="x" horiz-adv-x="997" 
d="M25 0l378 508l-358 481h178l275 -377l276 377h176l-358 -481l381 -508h-176l-299 406l-297 -406h-176z" />
    <glyph glyph-name="y" unicode="y" horiz-adv-x="1003" 
d="M6 989h167.999l328 -811l329 811h166l-495 -1190c-54 -131.333 -151 -198 -291 -200c-42.667 0 -79.667 4.66699 -111 14l23 139c24.667 -10.667 52.667 -16 84 -16c36 0 65.333 7.5 88 22.5s42.334 42.167 59.001 81.5l66 150z" />
    <glyph glyph-name="z" unicode="z" horiz-adv-x="966" 
d="M106 0v121l545 733h-545v135h746v-117l-549 -737h557v-135h-754z" />
    <glyph glyph-name="braceleft" unicode="{" horiz-adv-x="534" 
d="M10 449v102c35.333 0 62.333 13.333 81 40s28 60.334 28 101.001v420c0 82 25.333 148.667 76 200s110 77 178 77h127v-113h-127c-36.667 0 -68.334 -15.333 -95.001 -46s-40 -69.334 -40 -116.001v-434c0 -93.333 -31 -153.333 -93 -180c62 -26.667 93 -87 93 -181v-432
c0 -46 13.333 -84.667 40 -116s58.334 -47 95.001 -47h127v-113h-127c-68 0 -127.333 25.5 -178 76.5s-76 116.833 -76 197.5v422c0 40.667 -9.33301 74.5 -28 101.5s-45.667 40.5 -81 40.5z" />
    <glyph glyph-name="bar" unicode="|" horiz-adv-x="432" 
d="M160 -41v1448h112v-1448h-112z" />
    <glyph glyph-name="braceright" unicode="}" horiz-adv-x="534" 
d="M35 -276l125 0.00195312c37.333 0 69.5 15.667 96.5 47s40.5 70 40.5 116v432c0 94.667 30.667 155 92 181c-61.333 26 -92 86 -92 180v434c0 47.333 -13.333 86.166 -40 116.499s-59 45.5 -97 45.5h-125v113h125c68.667 0 128.5 -25.667 179.5 -77s76.5 -118 76.5 -200
v-420c0 -40.667 9.16699 -74.334 27.5 -101.001s44.5 -40 78.5 -40v-102c-34 0 -60.167 -13.5 -78.5 -40.5s-27.5 -60.833 -27.5 -101.5v-422c0 -80.667 -25.5 -146.5 -76.5 -197.5s-110.833 -76.5 -179.5 -76.5h-125v113z" />
    <glyph glyph-name="asciitilde" unicode="~" horiz-adv-x="1030" 
d="M55 879c5.33301 54 11.6689 102.83 19.002 146.497s18.166 87.334 32.499 131.001s31.5 80 51.5 109s45.333 52.667 76 71s65.334 27.5 104.001 27.5c34.667 0 65.334 -7.16699 92.001 -21.5s47.834 -33 63.501 -56s29.5 -48.5 41.5 -76.5s22.667 -55.833 32 -83.5
s19.166 -53 29.499 -76s23.5 -41.667 39.5 -56s34.667 -21.5 56 -21.5c47.333 0 84 34 110 102s45.333 165 58 291l113 -12c-5.33301 -54.667 -11.5 -103.5 -18.5 -146.5s-17.667 -86.833 -32 -131.5s-31.166 -81.5 -50.499 -110.5s-44.333 -52.833 -75 -71.5
s-65.667 -28 -105 -28c-40 0 -74.833 9.66699 -104.5 29s-51.834 43.333 -66.501 72s-28.834 59.834 -42.501 93.501s-25.334 64.834 -35.001 93.501s-23.5 52.667 -41.5 72s-39.333 29 -64 29s-46.334 -9.33301 -65.001 -28s-34.667 -46 -48 -82
s-24.333 -76.833 -33 -122.5s-16 -98.5 -22 -158.5z" />
    <glyph glyph-name="uni00A0" unicode="&#xa0;" horiz-adv-x="530" 
 />
    <glyph glyph-name="exclamdown" unicode="&#xa1;" horiz-adv-x="471" 
d="M123 897c0 30.667 11.167 57.168 33.5 79.501s48.833 33.5 79.5 33.5c30 0 55.833 -11.167 77.5 -33.5s32.5 -48.833 32.5 -79.5c0 -30 -10.833 -56 -32.5 -78s-47.5 -33 -77.5 -33c-30.667 0 -57.167 11.167 -79.5 33.5s-33.5 48.166 -33.5 77.499zM139 -376.999l31 983
h129l33 -983h-193z" />
    <glyph glyph-name="cent" unicode="&#xa2;" horiz-adv-x="1015" 
d="M96 496c0 134 38.5 248.501 115.5 343.501s178.5 151.167 304.5 168.5v149h121v-145c128 -10 233 -66.667 315 -170l-102 -92c-54 74 -125 115.333 -213 124v-759c86 8 157 50.333 213 127l102 -95c-80 -103.333 -185 -160 -315 -170v-182h-121v187
c-126 16.667 -227.5 72.667 -304.5 168s-115.5 210.666 -115.5 345.999zM256 496.001c0 -96 23.167 -177.832 69.5 -245.499s109.833 -110.834 190.5 -129.501v747c-80 -18.667 -143.333 -61.667 -190 -129s-70 -148.333 -70 -243z" />
    <glyph glyph-name="sterling" unicode="&#xa3;" horiz-adv-x="1060" 
d="M41 549l0.000976562 109.997h215c-51.333 59.333 -85.333 102.333 -102 129c-37.333 61.333 -56 126.333 -56 195c0 74 20.833 142 62.5 204s97.667 110.667 168 146s146.5 53 228.5 53c93.333 0 176.166 -20 248.499 -60s127.5 -96.333 165.5 -169l-137 -82
c-18.667 46.667 -51.834 86.334 -99.501 119.001s-101.5 49 -161.5 49c-81.333 0 -150 -23.833 -206 -71.5s-84 -111.167 -84 -190.5c0 -28.667 3 -55.5 9 -80.5s15.667 -49 29 -72s25.5 -42.167 36.5 -57.5s26.333 -34.833 46 -58.5s33.834 -41.5 42.501 -53.5h308v-110
h-250c9.33301 -31.333 14 -60.666 14 -87.999c0 -107.333 -52 -197.666 -156 -270.999c39.333 12.667 75 19 107 19c44.667 0 97 -14 157 -42s108.667 -42 146 -42c42 0 81.167 8.5 117.5 25.5s62.166 35.833 77.499 56.5l73 -137c-67.333 -64.667 -159.333 -97 -276 -97
c-41.333 0 -79.166 5 -113.499 15s-61.5 20.833 -81.5 32.5s-45.167 22.5 -75.5 32.5s-62.5 15 -96.5 15c-56 0 -136.333 -27.333 -241 -82l-60 129c86.667 38 153.5 84 200.5 138s70.5 111.667 70.5 173c0 39.333 -10.333 80.333 -31 123h-295z" />
    <glyph glyph-name="currency" unicode="&#xa4;" horiz-adv-x="1069" 
d="M74 281l114.001 114c-68 84.667 -102 180.334 -102 287.001c0 108.667 34 204.334 102 287.001l-114 116l57 58l117 -115c80 68 175.667 102 287 102c108 0 203.333 -34 286 -102l115 115l59 -58l-114 -116c68 -82.667 102 -178.334 102 -287.001
c0 -106.667 -34 -202.334 -102 -287.001l114 -114l-59 -60l-115 117c-82.667 -70 -178 -105 -286 -105c-108.667 0 -204.334 35 -287.001 105l-117 -117zM184.001 682c0 -96.667 34.333 -179.167 103 -247.5s151.334 -102.5 248.001 -102.5s179.167 34.167 247.5 102.5
s102.5 150.833 102.5 247.5c0 97.333 -34.167 180 -102.5 248s-150.833 102 -247.5 102s-179.334 -34 -248.001 -102s-103 -150.667 -103 -248z" />
    <glyph glyph-name="yen" unicode="&#xa5;" horiz-adv-x="1282" 
d="M18 1366h199l424 -635l424 635h199l-465 -682h440v-106h-512v-220h512v-108h-512v-250h-170v250h-512v108h512v220h-512v106h438z" />
    <glyph glyph-name="brokenbar" unicode="&#xa6;" horiz-adv-x="432" 
d="M160 -41v647h112v-647h-112zM160 760v647h112v-647h-112z" />
    <glyph glyph-name="section" unicode="&#xa7;" horiz-adv-x="958" 
d="M70 -6l76.9941 99.998c34 -41.333 79 -75.833 135 -103.5s118.333 -41.5 187 -41.5c71.333 0 129.166 15.667 173.499 47s66.5 74.333 66.5 129c0 34 -11.333 62.667 -34 86s-52 41.5 -88 54.5s-75.667 24.833 -119 35.5s-86.833 22.834 -130.5 36.501
s-83.5 30 -119.5 49s-65.333 46.333 -88 82s-34 78.167 -34 127.5c0 67.333 22.167 123 66.5 167s100.166 75 167.499 93c-75.333 24 -133.166 56 -173.499 96s-60.5 92.667 -60.5 158c0 78 33.167 143.5 99.5 196.5s155.5 79.5 267.5 79.5
c157.333 0 279.333 -48.333 366 -145l-71 -92c-33.333 40.667 -75.833 71.334 -127.5 92.001s-105.5 31 -161.5 31c-67.333 0 -121.666 -15 -162.999 -45s-62 -69.667 -62 -119c0 -24 7 -45 21 -63s32.833 -32.5 56.5 -43.5s50.834 -20.833 81.501 -29.5
s62.834 -17 96.501 -25s67.334 -16.667 101.001 -26s65.834 -21.333 96.501 -36s57.834 -32.167 81.501 -52.5s42.5 -46.333 56.5 -78s21 -68.167 21 -109.5c0 -57.333 -16 -108.5 -48 -153.5s-78.667 -80.5 -140 -106.5c61.333 -24 108 -55.833 140 -95.5
s48 -91.167 48 -154.5c0 -93.333 -35.667 -166.833 -107 -220.5s-164.666 -80.5 -279.999 -80.5c-92.667 0 -169.5 14.167 -230.5 42.5s-117.167 67.5 -168.5 117.5zM243.994 609.998c0 -35.333 14.502 -65.5029 43.502 -90.5029s57.667 -42.167 86 -51.5
s73.166 -21.666 134.499 -36.999c12 -3.33301 21 -5.66602 27 -6.99902c56.667 24.667 99.167 53 127.5 85s42.5 71.333 42.5 118c0 28 -6.33301 52.5 -19 73.5s-31.334 38.667 -56.001 53s-48.5 25.666 -71.5 33.999s-51.5 16.833 -85.5 25.5
c-84 -21.333 -143.167 -48.666 -177.5 -81.999s-51.5 -73.666 -51.5 -120.999z" />
    <glyph glyph-name="dieresis" unicode="&#xa8;" horiz-adv-x="557" 
d="M-29 1237c0 26 9.5 48.167 28.5 66.5s41.833 27.5 68.5 27.5c26 0 48.167 -9.16699 66.5 -27.5s27.5 -40.5 27.5 -66.5c0 -25.333 -9.33301 -47.333 -28 -66s-40.667 -28 -66 -28c-26.667 0 -49.5 9.33301 -68.5 28s-28.5 40.667 -28.5 66zM395 1237
c0 26 9.16699 48.167 27.5 66.5s40.5 27.5 66.5 27.5c26.667 0 49.5 -9.16699 68.5 -27.5s28.5 -40.5 28.5 -66.5c0 -25.333 -9.5 -47.333 -28.5 -66s-41.833 -28 -68.5 -28c-25.333 0 -47.333 9.33301 -66 28s-28 40.667 -28 66z" />
    <glyph glyph-name="copyright" unicode="&#xa9;" horiz-adv-x="1593" 
d="M90 684c0 128 31.667 246.33 95 354.997s149.333 194.5 258 257.5s226.667 94.5 354 94.5c96 0 187.667 -18.667 275 -56s162.333 -87.5 225 -150.5s112.667 -138.167 150 -225.5s56 -179 56 -275c0 -95.333 -18.667 -186.666 -56 -273.999
s-87.333 -162.666 -150 -225.999s-137.667 -113.666 -225 -150.999s-179 -56 -275 -56c-127.333 0 -245.333 31.667 -354 95s-194.667 149.333 -258 258s-95 226.667 -95 354zM154 683.997c0 -86.667 17.1689 -169.669 51.502 -249.002s80.166 -147.666 137.499 -204.999
s125.666 -103.166 204.999 -137.499s162.333 -51.5 249 -51.5s169.834 17.167 249.501 51.5s148.167 80.333 205.5 138s103 126 137 205s51 161.833 51 248.5c0 116 -28.833 223.333 -86.5 322s-135.834 176.834 -234.501 234.501s-206 86.5 -322 86.5
c-86.667 0 -169.5 -17 -248.5 -51s-147.333 -79.667 -205 -137s-103.667 -125.833 -138 -205.5s-51.5 -162.834 -51.5 -249.501zM375.002 687.995c0 124 41.168 227.332 123.501 309.999s183.166 124 302.499 124c123.333 0 223 -44.333 299 -133l-51 -51
c-26 36 -61.667 64.5 -107 85.5s-92.333 31.5 -141 31.5c-95.333 0 -177.5 -34.667 -246.5 -104s-103.5 -157.666 -103.5 -264.999c0 -105.333 34.833 -193.5 104.5 -264.5s151.5 -106.5 245.5 -106.5c48.667 0 95.5 10.833 140.5 32.5s80.833 50.5 107.5 86.5l53 -51
c-77.333 -90 -177.666 -135 -300.999 -135c-118.667 0 -219.334 42.333 -302.001 127s-124 189 -124 313z" />
    <glyph glyph-name="ordfeminine" unicode="&#xaa;" horiz-adv-x="774" 
d="M84 864c0 66.667 22.833 118.499 68.5 155.499s99.167 55.5 160.5 55.5c92.667 0 166.667 -28.667 222 -86v113c0 40.667 -15.833 73 -47.5 97s-70.5 36 -116.5 36c-82 0 -149 -31.333 -201 -94l-53 78c70 72 159.333 108 268 108c78 0 141.833 -18.333 191.5 -55
s74.5 -94 74.5 -172v-432h-116v71c-56.667 -58.667 -130.667 -88 -222 -88c-60.667 0 -114 19.333 -160 58s-69 90.334 -69 155.001zM203 863.999c0 -40.667 14.5 -73.333 43.5 -98s66.167 -37 111.5 -37c35.333 0 68.833 7 100.5 21s57.167 33 76.5 57v115
c-19.333 24 -44.833 42.833 -76.5 56.5s-65.167 20.5 -100.5 20.5c-45.333 0 -82.5 -12.5 -111.5 -37.5s-43.5 -57.5 -43.5 -97.5z" />
    <glyph glyph-name="guillemotleft" unicode="&#xab;" horiz-adv-x="899" 
d="M61 498l328 362h154l-328 -362l328 -369h-154zM356 498l328 362h154l-328 -362l328 -369h-154z" />
    <glyph glyph-name="logicalnot" unicode="&#xac;" horiz-adv-x="1032" 
d="M59 827v109h904v-504h-113v395h-791z" />
    <glyph glyph-name="uni00AD" unicode="&#xad;" horiz-adv-x="614" 
d="M61 428v135h492v-135h-492z" />
    <glyph glyph-name="registered" unicode="&#xae;" horiz-adv-x="1011" 
d="M72 952c0 120.667 42.333 223.167 127 307.5s187 126.5 307 126.5c79.333 0 152.333 -19.167 219 -57.5s119.167 -90.833 157.5 -157.5s57.5 -139.667 57.5 -219c0 -120 -42.167 -222.333 -126.5 -307s-186.833 -127 -307.5 -127c-120 0 -222.333 42.333 -307 127
s-127 187 -127 307zM131 952c0 -102.667 36.6689 -190.667 110.002 -264s161.666 -110 264.999 -110s191.666 36.667 264.999 110s110 161.333 110 264c0 105.333 -36.5 194.166 -109.5 266.499s-161.5 108.5 -265.5 108.5s-192.5 -36.167 -265.5 -108.5
s-109.5 -161.166 -109.5 -266.499zM340.002 702v498h203c43.333 0 80.333 -14 111 -42s46 -64.333 46 -109c0 -48 -15.333 -84.667 -46 -110s-57.667 -38 -81 -38l134 -199h-82l-129 197h-90v-197h-66zM406.002 958h137c22.667 0 43.334 9 62.001 27s28 39.333 28 64
c0 26.667 -9.33301 49 -28 67s-39.334 27 -62.001 27h-137v-185z" />
    <glyph glyph-name="degree" unicode="&#xb0;" horiz-adv-x="593" 
d="M47 1137c0 68.667 24.333 127.334 73 176.001s107.667 73 177 73c68.667 0 127.5 -24.333 176.5 -73s73.5 -107.334 73.5 -176.001c0 -69.333 -24.5 -128.333 -73.5 -177s-107.833 -73 -176.5 -73c-69.333 0 -128.333 24.333 -177 73s-73 107.667 -73 177zM147 1137
c0 -42 14.5 -77.499 43.5 -106.499s64.5 -43.5 106.5 -43.5c41.333 0 77 14.667 107 44s45 64.666 45 105.999c0 40.667 -15 76 -45 106s-65.667 45 -107 45c-42 0 -77.5 -14.833 -106.5 -44.5s-43.5 -65.167 -43.5 -106.5z" />
    <glyph glyph-name="plusminus" unicode="&#xb1;" horiz-adv-x="1021" 
d="M59 0v109h904v-109h-904zM59 664v106h394v424h116v-424h394v-106h-394v-437h-116v437h-394z" />
    <glyph glyph-name="uni00B2" unicode="&#xb2;" horiz-adv-x="794" 
d="M100 1565c32.667 41.333 75.999 73.166 129.999 95.499s111 33.5 171 33.5c52 0 99.5 -8.16699 142.5 -24.5s78.833 -43.333 107.5 -81s43 -83.167 43 -136.5c0 -40 -9.5 -79.833 -28.5 -119.5s-48.167 -80.334 -87.5 -122.001s-81.666 -81.167 -126.999 -118.5
s-101.333 -80.333 -168 -129h415v-101h-596v92c170.667 122.667 291.5 219.334 362.5 290.001s106.5 137.334 106.5 200.001c0 48.667 -17 85.667 -51 111s-75 38 -123 38s-92.5 -10.167 -133.5 -30.5s-72.833 -45.5 -95.5 -75.5z" />
    <glyph glyph-name="uni00B3" unicode="&#xb3;" horiz-adv-x="794" 
d="M86 981l68 78.0039c26.667 -34 61.167 -61 103.5 -81s86.833 -30 133.5 -30c58 0 104 13 138 39s51 61 51 105c0 49.333 -19.333 85.166 -58 107.499s-90.334 33.5 -155.001 33.5c-46.667 0 -74 -0.666992 -82 -2v102c9.33301 -1.33301 36.666 -2 81.999 -2
c60.667 0 109.167 10.5 145.5 31.5s54.5 54.167 54.5 99.5c0 41.333 -17.5 73.5 -52.5 96.5s-78.833 34.5 -131.5 34.5c-88 0 -162.333 -32.667 -223 -98l-64 72c74 84.667 173.667 127 299 127c87.333 0 158 -19.833 212 -59.5s81 -92.834 81 -159.501
c0 -54.667 -18.5 -98 -55.5 -130s-79.167 -51.667 -126.5 -59c20.667 -2 41.834 -7.5 63.501 -16.5s42.667 -21.333 63 -37s37 -36.334 50 -62.001s19.5 -54.167 19.5 -85.5c0 -70.667 -27.667 -127.834 -83 -171.501s-130.666 -65.5 -225.999 -65.5
c-69.333 0 -130.833 12.333 -184.5 37s-94.5 56.667 -122.5 96z" />
    <glyph glyph-name="acute" unicode="&#xb4;" horiz-adv-x="462" 
d="M0 1139l303 295h160l-346 -295h-117z" />
    <glyph glyph-name="paragraph" unicode="&#xb6;" horiz-adv-x="919" 
d="M55 1014c0 97.333 34.5 180.333 103.5 249s152.167 103 249.5 103h366v-1571h-92v1479h-182v-1479h-92v867c-97.333 0 -180.5 34.333 -249.5 103s-103.5 151.667 -103.5 249z" />
    <glyph glyph-name="cedilla" unicode="&#xb8;" horiz-adv-x="419" 
d="M0 -330l39.002 78c48.667 -39.333 103.334 -59 164.001 -59c35.333 0 65 7.66699 89 23s36 36.333 36 63c0 22 -6.5 39.333 -19.5 52s-31.833 19 -56.5 19c-34 0 -60 -11.333 -78 -34l-68 38l64 173h92l-53 -136c19.333 15.333 44.666 23 75.999 23
c39.333 0 71.666 -12.5 96.999 -37.5s38 -58.167 38 -99.5c0 -49.333 -20.333 -89 -61 -119s-91.334 -45 -152.001 -45c-42 0 -81.5 5.83301 -118.5 17.5s-66.5 26.167 -88.5 43.5z" />
    <glyph glyph-name="uni00B9" unicode="&#xb9;" horiz-adv-x="481" 
d="M29 1456l221 225h108v-819h-122v660l-136 -142z" />
    <glyph glyph-name="ordmasculine" unicode="&#xba;" horiz-adv-x="829" 
d="M82 989c0 95.333 30.5 175.5 91.5 240.5s141.167 97.5 240.5 97.5c100.667 0 181.5 -32.333 242.5 -97s91.5 -145 91.5 -241c0 -95.333 -30.5 -175.5 -91.5 -240.5s-141.833 -97.5 -242.5 -97.5c-98.667 0 -178.667 32.667 -240 98s-92 145.333 -92 240zM205 989
c0 -68.667 18.667 -125.667 56 -171s88.333 -68 153 -68c65.333 0 117.166 22.667 155.499 68s57.5 102.333 57.5 171s-19.167 125.5 -57.5 170.5s-90.166 67.5 -155.499 67.5c-64.667 0 -115.667 -22.5 -153 -67.5s-56 -101.833 -56 -170.5z" />
    <glyph glyph-name="guillemotright" unicode="&#xbb;" horiz-adv-x="899" 
d="M61 129l328 369l-328 362h154l328 -362l-328 -369h-154zM356 129l328 369l-328 362h154l328 -362l-328 -369h-154z" />
    <glyph glyph-name="onequarter" unicode="&#xbc;" horiz-adv-x="1576" 
d="M29 1141l221 225h108v-819h-122v659l-136 -141zM223 0l873 1366h112l-874 -1366h-111zM860 205v92l354 522h170v-514h117v-100h-117v-205h-122v205h-402zM983 305h279v406z" />
    <glyph glyph-name="onehalf" unicode="&#xbd;" horiz-adv-x="1652" 
d="M29 1141l221 225h108v-819h-122v659l-136 -141zM223 0l873 1366h112l-874 -1366h-111zM958 702c32.667 41.333 76.1641 73.1641 130.497 95.4971s111.5 33.5 171.5 33.5c52.667 0 100.334 -8.16699 143.001 -24.5s78.167 -43.166 106.5 -80.499
s42.5 -82.666 42.5 -135.999c0 -32 -6.83301 -64.5 -20.5 -97.5s-31.667 -64.5 -54 -94.5s-51.666 -62.333 -87.999 -97s-73.666 -67.334 -111.999 -98.001s-83.833 -65 -136.5 -103h415v-100h-595v92c170.667 122.667 291.5 219.334 362.5 290.001
s106.5 137.334 106.5 200.001c0 48.667 -17 85.667 -51 111s-75.333 38 -124 38c-48 0 -92.5 -10.167 -133.5 -30.5s-72.833 -45.5 -95.5 -75.5z" />
    <glyph glyph-name="threequarters" unicode="&#xbe;" horiz-adv-x="1798" 
d="M86 666l67.999 77.0029c26.667 -34 61.167 -60.833 103.5 -80.5s86.833 -29.5 133.5 -29.5c58.667 0 104.834 12.833 138.501 38.5s50.5 60.5 50.5 104.5c0 49.333 -19.333 85.333 -58 108s-90.334 34 -155.001 34c-42.667 0 -70 -1 -82 -3v103
c9.33301 -1.33301 36.666 -2 81.999 -2c60.667 0 109.167 10.5 145.5 31.5s54.5 54.167 54.5 99.5c0 41.333 -17.5 73.5 -52.5 96.5s-78.833 34.5 -131.5 34.5c-88 0 -162.333 -32.667 -223 -98l-64 71c74 84.667 173.667 127 299 127c87.333 0 158 -19.833 212 -59.5
s81 -92.834 81 -159.501c0 -54.667 -18.5 -97.834 -55.5 -129.501s-79.167 -51.167 -126.5 -58.5c20.667 -2 41.834 -7.5 63.501 -16.5s42.667 -21.333 63 -37s37 -36.334 50 -62.001s19.5 -54.167 19.5 -85.5c0 -70.667 -27.667 -128 -83 -172s-130.666 -66 -225.999 -66
c-69.333 0 -130.833 12.5 -184.5 37.5s-94.5 57.167 -122.5 96.5zM443.999 0.00292969l873 1366h113l-875 -1366h-111zM1083 205.003v92l355 522h170v-514h116v-100h-116v-205h-123v205h-402zM1206 305.003h279v406z" />
    <glyph glyph-name="questiondown" unicode="&#xbf;" horiz-adv-x="806" 
d="M63 -84c0 42 7.33398 80.667 22.001 116s33.667 65.5 57 90.5s49 48.5 77 70.5s56 42.667 84 62s53.667 38.5 77 57.5s42.333 40.5 57 64.5s22 49.333 22 76c0 40 -17.667 72.667 -53 98l124 55c52 -44.667 78 -100.667 78 -168c0 -35.333 -6.83301 -67.833 -20.5 -97.5
s-31.334 -55.334 -53.001 -77.001s-45.5 -42.167 -71.5 -61.5l-78 -56.5c-26 -18.333 -49.833 -37 -71.5 -56s-39.334 -41.167 -53.001 -66.5s-20.5 -52.666 -20.5 -81.999c0 -54 20.833 -99.333 62.5 -136s100.5 -55 176.5 -55c74 0 137 14.167 189 42.5
s98.333 69.5 139 123.5l102 -109c-50 -66 -112.667 -117.167 -188 -153.5s-160.666 -54.5 -255.999 -54.5c-122 0 -219.5 30.167 -292.5 90.5s-109.5 135.833 -109.5 226.5zM375.001 897c0 30.667 11 57.167 33 79.5s48.333 33.5 79 33.5s57.167 -11.167 79.5 -33.5
s33.5 -48.833 33.5 -79.5s-11.167 -57.167 -33.5 -79.5s-48.833 -33.5 -79.5 -33.5s-57 11.167 -79 33.5s-33 48.833 -33 79.5z" />
    <glyph glyph-name="Agrave" unicode="&#xc0;" horiz-adv-x="1347" 
d="M18 0l551 1366h211l549 -1366h-194l-121 305h-680l-121 -305h-195zM348 1786h160l303 -295h-117zM385 455h580l-291 737z" />
    <glyph glyph-name="Aacute" unicode="&#xc1;" horiz-adv-x="1347" 
d="M18 0l551 1366h211l549 -1366h-194l-121 305h-680l-121 -305h-195zM385 455h580l-291 737zM541 1491l303 295h160l-347 -295h-116z" />
    <glyph glyph-name="Acircumflex" unicode="&#xc2;" horiz-adv-x="1347" 
d="M18 0l551 1366h211l549 -1366h-194l-121 305h-680l-121 -305h-195zM385 455h580l-291 737zM406 1491l194 295h148l200 -295h-104l-170 217l-164 -217h-104z" />
    <glyph glyph-name="Atilde" unicode="&#xc3;" horiz-adv-x="1347" 
d="M18 0l551 1366h211l549 -1366h-194l-121 305h-680l-121 -305h-195zM354 1499c0 82 17.498 148.334 52.498 199.001s83.833 76 146.5 76c22.667 0 43.5 -4.66699 62.5 -14s34.5 -21 46.5 -35s23.833 -29.167 35.5 -45.5l31.5 -45.5c9.33301 -14 20.5 -25.667 33.5 -35
s27.167 -14 42.5 -14c29.333 0 53 14.667 71 44s27 73.333 27 132h92c0 -82 -17.333 -148.167 -52 -198.5s-83.334 -75.5 -146.001 -75.5c-27.333 0 -51.666 6.5 -72.999 19.5s-38.666 28.667 -51.999 47s-26 36.666 -38 54.999s-25.333 34 -40 47s-31 19.5 -49 19.5
c-29.333 0 -53.166 -14.667 -71.499 -44s-27.5 -73.333 -27.5 -132h-92zM384.998 455.001h580l-291 737z" />
    <glyph glyph-name="Adieresis" unicode="&#xc4;" horiz-adv-x="1347" 
d="M18 0l551 1366h211l549 -1366h-194l-121 305h-680l-121 -305h-195zM369 1583c0 26.667 9.33301 49 28 67s41.334 27 68.001 27c26 0 48.167 -9.16699 66.5 -27.5s27.5 -40.5 27.5 -66.5c0 -25.333 -9.33301 -47.333 -28 -66s-40.667 -28 -66 -28
c-26.667 0 -49.334 9.33301 -68.001 28s-28 40.667 -28 66zM385 455h580l-291 737zM793 1583c0 26 9.16699 48.167 27.5 66.5s40.5 27.5 66.5 27.5c26.667 0 49.334 -9 68.001 -27s28 -40.333 28 -67c0 -25.333 -9.33301 -47.333 -28 -66s-41.334 -28 -68.001 -28
c-25.333 0 -47.333 9.33301 -66 28s-28 40.667 -28 66z" />
    <glyph glyph-name="Aring" unicode="&#xc5;" horiz-adv-x="1347" 
d="M18 0l551 1366h211l549 -1366h-194l-121 305h-680l-121 -305h-195zM385 455h580l-291 737zM473 1620c0 55.333 20 103 60 143s87.667 60 143 60s102.166 -19.833 140.499 -59.5s57.5 -87.5 57.5 -143.5s-19.167 -103.833 -57.5 -143.5s-85.166 -59.5 -140.499 -59.5
s-103 20 -143 60s-60 87.667 -60 143zM555 1620c0 -33.333 11.667 -61.833 35 -85.5s52 -35.5 86 -35.5c32.667 0 60.667 11.833 84 35.5s35 52.167 35 85.5s-11.667 61.833 -35 85.5s-51.333 35.5 -84 35.5c-34 0 -62.667 -11.833 -86 -35.5s-35 -52.167 -35 -85.5z" />
    <glyph glyph-name="AE" unicode="&#xc6;" horiz-adv-x="1941" 
d="M14 0l852 1366h963v-152h-725v-440h711v-151h-711v-471h725v-152h-895v305h-537l-188 -305h-195zM479 455h455v737z" />
    <glyph glyph-name="Ccedilla" unicode="&#xc7;" horiz-adv-x="1384" 
d="M104 682c0 102.667 18.333 198.334 55 287.001s86.334 163.5 149.001 224.5s137.167 108.833 223.5 143.5s178.166 52 275.499 52c219.333 0 392 -90.333 518 -271l-141 -80c-40 60 -93.667 108.167 -161 144.5s-139.333 54.5 -216 54.5
c-150.667 0 -276 -51.833 -376 -155.5s-150 -236.834 -150 -399.501c0 -106 23 -201.5 69 -286.5s109 -151 189 -198s169.333 -70.5 268 -70.5c76 0 147.833 18.333 215.5 55s121.5 84.667 161.5 144l143 -78c-129.333 -176.667 -296 -267.667 -500 -273l-30 -79
c18 14.667 43 22 75 22c39.333 0 71.833 -12.5 97.5 -37.5s38.5 -58.167 38.5 -99.5c0 -49.333 -20.333 -89 -61 -119s-91.334 -45 -152.001 -45c-42 0 -81.5 5.83301 -118.5 17.5s-66.5 26.167 -88.5 43.5l39 78c48.667 -39.333 103.334 -59 164.001 -59
c35.333 0 64.833 7.66699 88.5 23s35.5 36.333 35.5 63c0 22 -6.33301 39.5 -19 52.5s-31.334 19.5 -56.001 19.5c-34 0 -60 -11.667 -78 -35l-68 39l43 121c-89.333 8 -172.833 30.667 -250.5 68s-144.667 86 -201 146s-100.666 132.167 -132.999 216.5
s-48.5 174.833 -48.5 271.5z" />
    <glyph glyph-name="Egrave" unicode="&#xc8;" horiz-adv-x="1165" 
d="M160 0v1366h895v-152h-725v-440h710v-151h-710v-471h725v-152h-895zM281 1786h159l303 -295h-116z" />
    <glyph glyph-name="Eacute" unicode="&#xc9;" horiz-adv-x="1165" 
d="M160 0v1366h895v-152h-725v-440h710v-151h-710v-471h725v-152h-895zM471 1491l303 295h160l-346 -295h-117z" />
    <glyph glyph-name="Ecircumflex" unicode="&#xca;" horiz-adv-x="1165" 
d="M160 0v1366h895v-152h-725v-440h710v-151h-710v-471h725v-152h-895zM334 1491l194 295h148l201 -295h-105l-170 217l-164 -217h-104z" />
    <glyph glyph-name="Edieresis" unicode="&#xcb;" horiz-adv-x="1165" 
d="M160 0v1366h895v-152h-725v-440h710v-151h-710v-471h725v-152h-895zM299 1583c0 26.667 9.33301 49 28 67s41.334 27 68.001 27c26 0 48.167 -9.16699 66.5 -27.5s27.5 -40.5 27.5 -66.5c0 -25.333 -9.33301 -47.333 -28 -66s-40.667 -28 -66 -28
c-26.667 0 -49.334 9.33301 -68.001 28s-28 40.667 -28 66zM723 1583c0 26 9.16699 48.167 27.5 66.5s40.5 27.5 66.5 27.5c26.667 0 49.334 -9 68.001 -27s28 -40.333 28 -67c0 -25.333 -9.33301 -47.333 -28 -66s-41.334 -28 -68.001 -28
c-25.333 0 -47.333 9.33301 -66 28s-28 40.667 -28 66z" />
    <glyph glyph-name="Igrave" unicode="&#xcc;" horiz-adv-x="489" 
d="M-84 1786h160l303 -295h-117zM160 0v1366h170v-1366h-170z" />
    <glyph glyph-name="Iacute" unicode="&#xcd;" horiz-adv-x="489" 
d="M113 1491l303 295h159l-346 -295h-116zM160 0v1366h170v-1366h-170z" />
    <glyph glyph-name="Icircumflex" unicode="&#xce;" horiz-adv-x="489" 
d="M-27 1491l195 295h147l201 -295h-104l-170 217l-164 -217h-105zM160 0v1366h170v-1366h-170z" />
    <glyph glyph-name="Idieresis" unicode="&#xcf;" horiz-adv-x="489" 
d="M-63 1583c0 26.667 9.33301 49 28 67s41.334 27 68.001 27c26 0 48.167 -9.16699 66.5 -27.5s27.5 -40.5 27.5 -66.5c0 -25.333 -9.33301 -47.333 -28 -66s-40.667 -28 -66 -28c-26.667 0 -49.334 9.33301 -68.001 28s-28 40.667 -28 66zM160 0v1366h170v-1366h-170z
M360 1583c0 26 9.33301 48.167 28 66.5s41 27.5 67 27.5c26.667 0 49.334 -9 68.001 -27s28 -40.333 28 -67c0 -25.333 -9.33301 -47.333 -28 -66s-41.334 -28 -68.001 -28c-25.333 0 -47.5 9.33301 -66.5 28s-28.5 40.667 -28.5 66z" />
    <glyph glyph-name="Eth" unicode="&#xd0;" horiz-adv-x="1490" 
d="M20 612l0.000976562 125.002h197v629h467c138.667 0 261.667 -30.167 369 -90.5s189.333 -142.166 246 -245.499s85 -219.333 85 -348c0 -96.667 -16.667 -186.834 -50 -270.501s-80 -155.834 -140 -216.501s-133.833 -108.334 -221.5 -143.001
s-183.834 -52 -288.501 -52h-467v612h-197zM387.001 152.002h296.999c107.333 0 201.333 24 282 72s141.167 111.667 181.5 191s60.5 168.333 60.5 267c0 100 -19.833 189.667 -59.5 269s-99.667 143 -180 191s-175.166 72 -284.499 72h-297v-477h346v-125h-346v-460z" />
    <glyph glyph-name="Ntilde" unicode="&#xd1;" horiz-adv-x="1449" 
d="M160 0v1366h174l786 -1067v1067h170v-1366h-164l-796 1090v-1090h-170zM401 1499c0 82 17.499 148.334 52.499 199.001s83.833 76 146.5 76c22.667 0 43.5 -4.66699 62.5 -14s34.5 -21 46.5 -35s23.833 -29.167 35.5 -45.5l31.5 -45.5c9.33301 -14 20.5 -25.667 33.5 -35
s27.167 -14 42.5 -14c29.333 0 53 14.667 71 44s27 73.333 27 132h92c0 -82 -17.333 -148.167 -52 -198.5s-83.334 -75.5 -146.001 -75.5c-27.333 0 -51.666 6.5 -72.999 19.5s-38.666 28.667 -51.999 47s-26 36.666 -38 54.999s-25.333 34 -40 47s-31 19.5 -49 19.5
c-29.333 0 -53 -14.667 -71 -44s-27 -73.333 -27 -132h-93z" />
    <glyph glyph-name="Ograve" unicode="&#xd2;" horiz-adv-x="1566" 
d="M104 682c0 133.333 28.167 253.666 84.5 360.999s136.333 191.833 240 253.5s221.5 92.5 353.5 92.5s250 -30.833 354 -92.5s184.333 -146.167 241 -253.5s85 -227.666 85 -360.999s-28.333 -253.666 -85 -360.999s-137 -191.833 -241 -253.5s-222 -92.5 -354 -92.5
s-249.833 30.833 -353.5 92.5s-183.667 146.167 -240 253.5s-84.5 227.666 -84.5 360.999zM281 682c0 -105.333 20.167 -199.999 60.5 -283.999s98.833 -150.167 175.5 -198.5s165 -72.5 265 -72.5s188.5 24.167 265.5 72.5s136 114.5 177 198.5s61.5 178.667 61.5 284
c0 161.333 -46.333 294.166 -139 398.499s-214.334 156.5 -365.001 156.5c-151.333 0 -272.666 -52 -363.999 -156s-137 -237 -137 -399zM463 1786h160l303 -295h-117z" />
    <glyph glyph-name="Oacute" unicode="&#xd3;" horiz-adv-x="1566" 
d="M104 682c0 133.333 28.167 253.666 84.5 360.999s136.333 191.833 240 253.5s221.5 92.5 353.5 92.5s250 -30.833 354 -92.5s184.333 -146.167 241 -253.5s85 -227.666 85 -360.999s-28.333 -253.666 -85 -360.999s-137 -191.833 -241 -253.5s-222 -92.5 -354 -92.5
s-249.833 30.833 -353.5 92.5s-183.667 146.167 -240 253.5s-84.5 227.666 -84.5 360.999zM281 682c0 -105.333 20.167 -199.999 60.5 -283.999s98.833 -150.167 175.5 -198.5s165 -72.5 265 -72.5s188.5 24.167 265.5 72.5s136 114.5 177 198.5s61.5 178.667 61.5 284
c0 161.333 -46.333 294.166 -139 398.499s-214.334 156.5 -365.001 156.5c-151.333 0 -272.666 -52 -363.999 -156s-137 -237 -137 -399zM651 1491l303 295h160l-346 -295h-117z" />
    <glyph glyph-name="Ocircumflex" unicode="&#xd4;" horiz-adv-x="1566" 
d="M104 682c0 133.333 28.167 253.666 84.5 360.999s136.333 191.833 240 253.5s221.5 92.5 353.5 92.5s250 -30.833 354 -92.5s184.333 -146.167 241 -253.5s85 -227.666 85 -360.999s-28.333 -253.666 -85 -360.999s-137 -191.833 -241 -253.5s-222 -92.5 -354 -92.5
s-249.833 30.833 -353.5 92.5s-183.667 146.167 -240 253.5s-84.5 227.666 -84.5 360.999zM281 682c0 -105.333 20.167 -199.999 60.5 -283.999s98.833 -150.167 175.5 -198.5s165 -72.5 265 -72.5s188.5 24.167 265.5 72.5s136 114.5 177 198.5s61.5 178.667 61.5 284
c0 161.333 -46.333 294.166 -139 398.499s-214.334 156.5 -365.001 156.5c-151.333 0 -272.666 -52 -363.999 -156s-137 -237 -137 -399zM516 1491l195 295h147l201 -295h-105l-170 217l-163 -217h-105z" />
    <glyph glyph-name="Otilde" unicode="&#xd5;" horiz-adv-x="1566" 
d="M104 682c0 133.333 28.167 253.666 84.5 360.999s136.333 191.833 240 253.5s221.5 92.5 353.5 92.5s250 -30.833 354 -92.5s184.333 -146.167 241 -253.5s85 -227.666 85 -360.999s-28.333 -253.666 -85 -360.999s-137 -191.833 -241 -253.5s-222 -92.5 -354 -92.5
s-249.833 30.833 -353.5 92.5s-183.667 146.167 -240 253.5s-84.5 227.666 -84.5 360.999zM281 682c0 -105.333 20.167 -199.999 60.5 -283.999s98.833 -150.167 175.5 -198.5s165 -72.5 265 -72.5s188.5 24.167 265.5 72.5s136 114.5 177 198.5s61.5 178.667 61.5 284
c0 161.333 -46.333 294.166 -139 398.499s-214.334 156.5 -365.001 156.5c-151.333 0 -272.666 -52 -363.999 -156s-137 -237 -137 -399zM463 1499c0 82 17.499 148.334 52.499 199.001s83.833 76 146.5 76c27.333 0 51.5 -6.5 72.5 -19.5s38.167 -28.667 51.5 -47
s26 -36.833 38 -55.5s25.333 -34.5 40 -47.5s31 -19.5 49 -19.5c29.333 0 53.166 14.667 71.499 44s27.5 73.333 27.5 132h92c0 -82 -17.5 -148.167 -52.5 -198.5s-83.833 -75.5 -146.5 -75.5c-27.333 0 -51.666 6.5 -72.999 19.5s-38.666 28.667 -51.999 47
s-26 36.666 -38 54.999s-25.333 34 -40 47s-31 19.5 -49 19.5c-29.333 0 -53 -14.667 -71 -44s-27 -73.333 -27 -132h-92z" />
    <glyph glyph-name="Odieresis" unicode="&#xd6;" horiz-adv-x="1566" 
d="M104 682c0 133.333 28.167 253.666 84.5 360.999s136.333 191.833 240 253.5s221.5 92.5 353.5 92.5s250 -30.833 354 -92.5s184.333 -146.167 241 -253.5s85 -227.666 85 -360.999s-28.333 -253.666 -85 -360.999s-137 -191.833 -241 -253.5s-222 -92.5 -354 -92.5
s-249.833 30.833 -353.5 92.5s-183.667 146.167 -240 253.5s-84.5 227.666 -84.5 360.999zM281 682c0 -105.333 20.167 -199.999 60.5 -283.999s98.833 -150.167 175.5 -198.5s165 -72.5 265 -72.5s188.5 24.167 265.5 72.5s136 114.5 177 198.5s61.5 178.667 61.5 284
c0 161.333 -46.333 294.166 -139 398.499s-214.334 156.5 -365.001 156.5c-151.333 0 -272.666 -52 -363.999 -156s-137 -237 -137 -399zM475 1583c0 26.667 9.33301 49 28 67s41.334 27 68.001 27c26 0 48.333 -9.16699 67 -27.5s28 -40.5 28 -66.5
c0 -25.333 -9.5 -47.333 -28.5 -66s-41.167 -28 -66.5 -28c-26.667 0 -49.334 9.33301 -68.001 28s-28 40.667 -28 66zM899 1583c0 26 9.16699 48.167 27.5 66.5s40.5 27.5 66.5 27.5c26.667 0 49.5 -9.16699 68.5 -27.5s28.5 -40.5 28.5 -66.5
c0 -25.333 -9.5 -47.333 -28.5 -66s-41.833 -28 -68.5 -28c-25.333 0 -47.333 9.33301 -66 28s-28 40.667 -28 66z" />
    <glyph glyph-name="multiply" unicode="&#xd7;" horiz-adv-x="1021" 
d="M131 379l305 305l-305 305l76 76l303 -305l305 305l76 -76l-303 -305l303 -305l-76 -76l-305 305l-303 -305z" />
    <glyph glyph-name="Oslash" unicode="&#xd8;" horiz-adv-x="1566" 
d="M104 682c0 133.333 28.165 253.664 84.498 360.997s136.333 191.833 240 253.5s221.5 92.5 353.5 92.5c126 0 240 -28.667 342 -86l43 63h138l-86 -129c76.667 -64 136.334 -144.167 179.001 -240.5s64 -201.166 64 -314.499c0 -133.333 -28.333 -253.666 -85 -360.999
s-137 -191.833 -241 -253.5s-222 -92.5 -354 -92.5c-129.333 0 -246.666 31 -351.999 93l-45 -68h-137l90 133c-74 64 -131.5 143.333 -172.5 238s-61.5 198.334 -61.5 311.001zM280.998 681.998c0 -171.333 49.666 -308.667 148.999 -412l606 901
c-77.333 44 -162 66 -254 66c-151.333 0 -272.666 -52 -363.999 -156s-137 -237 -137 -399zM517.997 198.997c75.333 -48 163.333 -71.999 264 -71.999c100 0 188.5 24.167 265.5 72.5s136 114.5 177 198.5s61.5 178.667 61.5 284c0 85.333 -13.833 164.166 -41.5 236.499
s-67.167 133.5 -118.5 183.5z" />
    <glyph glyph-name="Ugrave" unicode="&#xd9;" horiz-adv-x="1435" 
d="M160 530v835.998h172v-831c0 -127.333 33.167 -227.166 99.5 -299.499s161.5 -108.5 285.5 -108.5s219.5 36.333 286.5 109s100.5 172.334 100.5 299.001v831h172v-834c0 -174 -47.667 -310.333 -143 -409s-234 -148 -416 -148c-180.667 0 -318.667 49.5 -414 148.5
s-143 234.5 -143 406.5zM393 1786h160l303 -295h-117z" />
    <glyph glyph-name="Uacute" unicode="&#xda;" horiz-adv-x="1435" 
d="M160 530v835.998h172v-831c0 -127.333 33.167 -227.166 99.5 -299.499s161.5 -108.5 285.5 -108.5s219.5 36.333 286.5 109s100.5 172.334 100.5 299.001v831h172v-834c0 -174 -47.667 -310.333 -143 -409s-234 -148 -416 -148c-180.667 0 -318.667 49.5 -414 148.5
s-143 234.5 -143 406.5zM582 1491l303 295h159l-346 -295h-116z" />
    <glyph glyph-name="Ucircumflex" unicode="&#xdb;" horiz-adv-x="1435" 
d="M160 530v835.998h172v-831c0 -127.333 33.167 -227.166 99.5 -299.499s161.5 -108.5 285.5 -108.5s219.5 36.333 286.5 109s100.5 172.334 100.5 299.001v831h172v-834c0 -174 -47.667 -310.333 -143 -409s-234 -148 -416 -148c-180.667 0 -318.667 49.5 -414 148.5
s-143 234.5 -143 406.5zM457 1491l194 295h148l200 -295h-104l-170 217l-164 -217h-104z" />
    <glyph glyph-name="Udieresis" unicode="&#xdc;" horiz-adv-x="1435" 
d="M160 530v835.998h172v-831c0 -127.333 33.167 -227.166 99.5 -299.499s161.5 -108.5 285.5 -108.5s219.5 36.333 286.5 109s100.5 172.334 100.5 299.001v831h172v-834c0 -174 -47.667 -310.333 -143 -409s-234 -148 -416 -148c-180.667 0 -318.667 49.5 -414 148.5
s-143 234.5 -143 406.5zM412 1583c0 26.667 9.33301 49 28 67s41.334 27 68.001 27c26 0 48.167 -9.16699 66.5 -27.5s27.5 -40.5 27.5 -66.5c0 -25.333 -9.33301 -47.333 -28 -66s-40.667 -28 -66 -28c-26.667 0 -49.334 9.33301 -68.001 28s-28 40.667 -28 66zM836 1583
c0 26 9.16699 48.167 27.5 66.5s40.5 27.5 66.5 27.5c26.667 0 49.334 -9 68.001 -27s28 -40.333 28 -67c0 -25.333 -9.33301 -47.333 -28 -66s-41.334 -28 -68.001 -28c-25.333 0 -47.333 9.33301 -66 28s-28 40.667 -28 66z" />
    <glyph glyph-name="Yacute" unicode="&#xdd;" horiz-adv-x="1282" 
d="M18 1366h199l424 -635l424 635h199l-537 -788v-578h-170v578zM514 1491l303 295h160l-346 -295h-117z" />
    <glyph glyph-name="Thorn" unicode="&#xde;" horiz-adv-x="1202" 
d="M160 0v1366h170v-244h379c132 0 236.333 -39.667 313 -119s115 -177.333 115 -294c0 -116 -38.5 -213.333 -115.5 -292s-181.167 -118 -312.5 -118h-379v-299h-170zM330 451l358.002 -0.000976562c81.333 0 147.166 23.833 197.499 71.5s75.5 109.834 75.5 186.501
c0 77.333 -25.333 140.333 -76 189s-116.334 73 -197.001 73h-358v-520z" />
    <glyph glyph-name="germandbls" unicode="&#xdf;" horiz-adv-x="1222" 
d="M156 0v1022c0 103.333 35.5 189.833 106.5 259.5s165.167 104.5 282.5 104.5c98 0 182.167 -23.667 252.5 -71s105.5 -109.666 105.5 -186.999c0 -30 -5.66699 -57.667 -17 -83s-26 -46.666 -44 -63.999s-37.833 -33.833 -59.5 -49.5s-43.5 -30.5 -65.5 -44.5
s-42 -28.167 -60 -42.5s-32.667 -31.166 -44 -50.499s-17 -40.333 -17 -63c0 -28.667 10.833 -52.5 32.5 -71.5s49.834 -34 84.501 -45s72.834 -21.167 114.501 -30.5s83.334 -21 125.001 -35s79.834 -31.167 114.501 -51.5s62.834 -49.333 84.501 -87
s32.5 -82.5 32.5 -134.5c0 -85.333 -33 -156.833 -99 -214.5s-160 -86.5 -282 -86.5c-89.333 0 -162.333 13.833 -219 41.5s-110.667 67.167 -162 118.5l78 107c30.667 -40.667 72.5 -74.167 125.5 -100.5s112.167 -39.5 177.5 -39.5c74.667 0 131.834 16.5 171.501 49.5
s59.5 73.167 59.5 120.5c0 32 -10.833 59 -32.5 81s-49.834 39.167 -84.501 51.5s-72.834 23.666 -114.501 33.999s-83.334 22.333 -125.001 36s-79.834 30 -114.501 49s-62.834 46.167 -84.501 81.5s-32.5 77.333 -32.5 126c0 40.667 10.333 77.5 31 110.5
s45.667 60.167 75 81.5s58.5 41.333 87.5 60s53.833 38.834 74.5 60.501s31 44.5 31 68.5c0 42 -20.5 75.333 -61.5 100s-87.833 37 -140.5 37c-66.667 0 -122.334 -20.667 -167.001 -62s-67 -96.333 -67 -165v-1022h-153z" />
    <glyph glyph-name="agrave" unicode="&#xe0;" horiz-adv-x="1081" 
d="M100 303c0 53.333 9.99902 101.501 29.999 144.501s46.5 77.333 79.5 103s69.5 45.167 109.5 58.5s81.667 20 125 20c140 0 249.333 -44.333 328 -133v178c0 64 -23.333 114.5 -70 151.5s-106.667 55.5 -180 55.5c-117.333 0 -218.333 -46 -303 -138l-72 107
c104.667 109.333 236.667 164 396 164c54.667 0 104.5 -6.33301 149.5 -19s85.167 -31.834 120.5 -57.501s63 -60.5 83 -104.5s30 -95 30 -153v-680h-154v113c-82 -92 -191.333 -138 -328 -138c-42 0 -83.167 7.16699 -123.5 21.5s-77.166 34.833 -110.499 61.5
s-60 61.167 -80 103.5s-30 89.5 -30 141.5zM216.999 1434h160l303 -295h-117zM255.999 303.001c0 -63.333 22.832 -115.333 68.499 -156s104.834 -61 177.501 -61c54.667 0 106.167 10.5 154.5 31.5s86.833 51.5 115.5 91.5v188c-28.667 38.667 -67.167 68.5 -115.5 89.5
s-99.833 31.5 -154.5 31.5c-72 0 -131 -20.167 -177 -60.5s-69 -91.833 -69 -154.5z" />
    <glyph glyph-name="aacute" unicode="&#xe1;" horiz-adv-x="1081" 
d="M100 303c0 53.333 9.99902 101.501 29.999 144.501s46.5 77.333 79.5 103s69.5 45.167 109.5 58.5s81.667 20 125 20c140 0 249.333 -44.333 328 -133v178c0 64 -23.333 114.5 -70 151.5s-106.667 55.5 -180 55.5c-117.333 0 -218.333 -46 -303 -138l-72 107
c104.667 109.333 236.667 164 396 164c54.667 0 104.5 -6.33301 149.5 -19s85.167 -31.834 120.5 -57.501s63 -60.5 83 -104.5s30 -95 30 -153v-680h-154v113c-82 -92 -191.333 -138 -328 -138c-42 0 -83.167 7.16699 -123.5 21.5s-77.166 34.833 -110.499 61.5
s-60 61.167 -80 103.5s-30 89.5 -30 141.5zM255.999 303.001c0 -63.333 22.832 -115.333 68.499 -156s104.834 -61 177.501 -61c54.667 0 106.167 10.5 154.5 31.5s86.833 51.5 115.5 91.5v188c-28.667 38.667 -67.167 68.5 -115.5 89.5s-99.833 31.5 -154.5 31.5
c-72 0 -131 -20.167 -177 -60.5s-69 -91.833 -69 -154.5zM411.998 1139l303 295h159l-346 -295h-116z" />
    <glyph glyph-name="acircumflex" unicode="&#xe2;" horiz-adv-x="1081" 
d="M100 303c0 53.333 9.99902 101.501 29.999 144.501s46.5 77.333 79.5 103s69.5 45.167 109.5 58.5s81.667 20 125 20c140 0 249.333 -44.333 328 -133v178c0 64 -23.333 114.5 -70 151.5s-106.667 55.5 -180 55.5c-117.333 0 -218.333 -46 -303 -138l-72 107
c104.667 109.333 236.667 164 396 164c54.667 0 104.5 -6.33301 149.5 -19s85.167 -31.834 120.5 -57.501s63 -60.5 83 -104.5s30 -95 30 -153v-680h-154v113c-82 -92 -191.333 -138 -328 -138c-42 0 -83.167 7.16699 -123.5 21.5s-77.166 34.833 -110.499 61.5
s-60 61.167 -80 103.5s-30 89.5 -30 141.5zM255.999 303.001c0 -63.333 22.832 -115.333 68.499 -156s104.834 -61 177.501 -61c54.667 0 106.167 10.5 154.5 31.5s86.833 51.5 115.5 91.5v188c-28.667 38.667 -67.167 68.5 -115.5 89.5s-99.833 31.5 -154.5 31.5
c-72 0 -131 -20.167 -177 -60.5s-69 -91.833 -69 -154.5zM278.998 1139l194 295h148l200 -295h-104l-170 217l-164 -217h-104z" />
    <glyph glyph-name="atilde" unicode="&#xe3;" horiz-adv-x="1081" 
d="M100 303c0 53.333 9.99902 101.501 29.999 144.501s46.5 77.333 79.5 103s69.5 45.167 109.5 58.5s81.667 20 125 20c140 0 249.333 -44.333 328 -133v178c0 64 -23.333 114.5 -70 151.5s-106.667 55.5 -180 55.5c-117.333 0 -218.333 -46 -303 -138l-72 107
c104.667 109.333 236.667 164 396 164c54.667 0 104.5 -6.33301 149.5 -19s85.167 -31.834 120.5 -57.501s63 -60.5 83 -104.5s30 -95 30 -153v-680h-154v113c-82 -92 -191.333 -138 -328 -138c-42 0 -83.167 7.16699 -123.5 21.5s-77.166 34.833 -110.499 61.5
s-60 61.167 -80 103.5s-30 89.5 -30 141.5zM222.999 1147c0 82 17.5 148.167 52.5 198.5s83.833 75.5 146.5 75.5c27.333 0 51.666 -6.5 72.999 -19.5s38.666 -28.667 51.999 -47s26 -36.666 38 -54.999s25.333 -34 40 -47s31 -19.5 49 -19.5c29.333 0 53 14.667 71 44
s27 73.333 27 132h92c0 -82 -17.333 -148.167 -52 -198.5s-83.334 -75.5 -146.001 -75.5c-27.333 0 -51.666 6.5 -72.999 19.5s-38.666 28.667 -51.999 47s-26 36.666 -38 54.999s-25.333 34 -40 47s-31 19.5 -49 19.5c-29.333 0 -53.166 -14.667 -71.499 -44
s-27.5 -73.333 -27.5 -132h-92zM255.999 303.001c0 -63.333 22.832 -115.333 68.499 -156s104.834 -61 177.501 -61c54.667 0 106.167 10.5 154.5 31.5s86.833 51.5 115.5 91.5v188c-28.667 38.667 -67.167 68.5 -115.5 89.5s-99.833 31.5 -154.5 31.5
c-72 0 -131 -20.167 -177 -60.5s-69 -91.833 -69 -154.5z" />
    <glyph glyph-name="adieresis" unicode="&#xe4;" horiz-adv-x="1081" 
d="M100 303c0 53.333 9.99902 101.501 29.999 144.501s46.5 77.333 79.5 103s69.5 45.167 109.5 58.5s81.667 20 125 20c140 0 249.333 -44.333 328 -133v178c0 64 -23.333 114.5 -70 151.5s-106.667 55.5 -180 55.5c-117.333 0 -218.333 -46 -303 -138l-72 107
c104.667 109.333 236.667 164 396 164c54.667 0 104.5 -6.33301 149.5 -19s85.167 -31.834 120.5 -57.501s63 -60.5 83 -104.5s30 -95 30 -153v-680h-154v113c-82 -92 -191.333 -138 -328 -138c-42 0 -83.167 7.16699 -123.5 21.5s-77.166 34.833 -110.499 61.5
s-60 61.167 -80 103.5s-30 89.5 -30 141.5zM232.999 1237c0 26 9.5 48.167 28.5 66.5s41.833 27.5 68.5 27.5c26 0 48.167 -9.16699 66.5 -27.5s27.5 -40.5 27.5 -66.5c0 -25.333 -9.33301 -47.333 -28 -66s-40.667 -28 -66 -28c-26.667 0 -49.5 9.33301 -68.5 28
s-28.5 40.667 -28.5 66zM255.999 303.001c0 -63.333 22.832 -115.333 68.499 -156s104.834 -61 177.501 -61c54.667 0 106.167 10.5 154.5 31.5s86.833 51.5 115.5 91.5v188c-28.667 38.667 -67.167 68.5 -115.5 89.5s-99.833 31.5 -154.5 31.5
c-72 0 -131 -20.167 -177 -60.5s-69 -91.833 -69 -154.5zM656.998 1237c0 26 9.33301 48.167 28 66.5s41 27.5 67 27.5c26.667 0 49.334 -9 68.001 -27s28 -40.333 28 -67c0 -25.333 -9.33301 -47.333 -28 -66s-41.334 -28 -68.001 -28c-25.333 0 -47.5 9.33301 -66.5 28
s-28.5 40.667 -28.5 66z" />
    <glyph glyph-name="aring" unicode="&#xe5;" horiz-adv-x="1081" 
d="M100 303c0 53.333 9.99902 101.501 29.999 144.501s46.5 77.333 79.5 103s69.5 45.167 109.5 58.5s81.667 20 125 20c140 0 249.333 -44.333 328 -133v178c0 64 -23.333 114.5 -70 151.5s-106.667 55.5 -180 55.5c-117.333 0 -218.333 -46 -303 -138l-72 107
c104.667 109.333 236.667 164 396 164c54.667 0 104.5 -6.33301 149.5 -19s85.167 -31.834 120.5 -57.501s63 -60.5 83 -104.5s30 -95 30 -153v-680h-154v113c-82 -92 -191.333 -138 -328 -138c-42 0 -83.167 7.16699 -123.5 21.5s-77.166 34.833 -110.499 61.5
s-60 61.167 -80 103.5s-30 89.5 -30 141.5zM255.999 303.001c0 -63.333 22.832 -115.333 68.499 -156s104.834 -61 177.501 -61c54.667 0 106.167 10.5 154.5 31.5s86.833 51.5 115.5 91.5v188c-28.667 38.667 -67.167 68.5 -115.5 89.5s-99.833 31.5 -154.5 31.5
c-72 0 -131 -20.167 -177 -60.5s-69 -91.833 -69 -154.5zM341.998 1323c0 55.333 20 103 60 143s87.667 60 143 60s102.166 -19.833 140.499 -59.5s57.5 -87.5 57.5 -143.5s-19.167 -103.833 -57.5 -143.5s-85.166 -59.5 -140.499 -59.5s-103 20 -143 60s-60 87.667 -60 143
zM423.998 1323c0 -33.333 11.667 -61.833 35 -85.5s52 -35.5 86 -35.5c32.667 0 60.667 11.833 84 35.5s35 52.167 35 85.5s-11.667 61.833 -35 85.5s-51.333 35.5 -84 35.5c-34 0 -62.667 -11.833 -86 -35.5s-35 -52.167 -35 -85.5z" />
    <glyph glyph-name="ae" unicode="&#xe6;" horiz-adv-x="1820" 
d="M100 303c0 102 33.501 181.834 100.501 239.501s148.167 86.5 243.5 86.5c139.333 0 248.666 -43.667 327.999 -131v176c0 64 -23.333 114.5 -70 151.5s-106.667 55.5 -180 55.5c-117.333 0 -218.333 -46 -303 -138l-72 107c104.667 109.333 236.667 164 396 164
c92.667 0 167.667 -18.333 225 -55s94.333 -90.667 111 -162c37.333 65.333 87.5 117.833 150.5 157.5s138.833 59.5 227.5 59.5c142.667 0 256.5 -50.333 341.5 -151s127.5 -227.334 127.5 -380.001v-39h-798c6 -96.667 40.667 -177.167 104 -241.5
s146.666 -96.5 249.999 -96.5c58 0 113.833 10.667 167.5 32s100.167 52.333 139.5 93l74 -102c-104.667 -102.667 -235.667 -154 -393 -154c-175.333 0 -312 68.333 -410 205c-41.333 -58 -95.666 -106.667 -162.999 -146s-148.666 -59 -243.999 -59
c-44 0 -86.833 7.16699 -128.5 21.5s-79.334 34.833 -113.001 61.5s-60.667 61.167 -81 103.5s-30.5 89.5 -30.5 141.5zM256.001 303.001c0 -63.333 22.832 -115.333 68.499 -156s104.834 -61 177.501 -61c38 0 74.333 5 109 15s69.5 28.5 104.5 55.5
s64.167 61.5 87.5 103.5c-20.667 50 -31 94.333 -31 133c-28.667 40 -67.167 70.833 -115.5 92.5s-99.833 32.5 -154.5 32.5c-72 0 -131 -20.167 -177 -60.5s-69 -91.833 -69 -154.5zM926 559.001l648.999 0.000976562c-0.666992 38 -7.66699 75.667 -21 113
s-32.666 72.333 -57.999 105s-59.333 59.167 -102 79.5s-91 30.5 -145 30.5c-50.667 0 -96.667 -10 -138 -30s-74.833 -46.167 -100.5 -78.5s-45.667 -67.333 -60 -105s-22.5 -75.834 -24.5 -114.501z" />
    <glyph glyph-name="ccedilla" unicode="&#xe7;" horiz-adv-x="1015" 
d="M96 496c0 97.333 20.499 185.167 61.499 263.5s99.167 140.333 174.5 186s161.333 68.5 258 68.5c152.667 0 273.334 -57.333 362.001 -172l-102 -92c-62 84.667 -146 127 -252 127c-103.333 0 -186.166 -35.667 -248.499 -107s-93.5 -162.666 -93.5 -273.999
s31.333 -203 94 -275s145.334 -108 248.001 -108c103.333 0 187.333 43 252 129l102 -95c-79.333 -104.667 -187 -161.334 -323 -170.001l-33 -86c19.333 15.333 44.666 23 75.999 23c39.333 0 71.666 -12.5 96.999 -37.5s38 -58.167 38 -99.5
c0 -49.333 -20.333 -89 -61 -119s-91.334 -45 -152.001 -45c-42 0 -81.5 5.83301 -118.5 17.5s-66.5 26.167 -88.5 43.5l39 78c48.667 -39.333 103.334 -59 164.001 -59c35.333 0 65 7.66699 89 23s36 36.333 36 63c0 22 -6.5 39.333 -19.5 52s-31.833 19 -56.5 19
c-34 0 -60 -11.333 -78 -34l-67 39l45 125c-132 11.333 -238.833 65.333 -320.5 162s-122.5 214.667 -122.5 354z" />
    <glyph glyph-name="egrave" unicode="&#xe8;" horiz-adv-x="1153" 
d="M96 496c0 94.667 20.8301 181.499 62.4971 260.499s99.834 141.667 174.501 188s158.334 69.5 251.001 69.5c97.333 0 182.333 -23.667 255 -71s127.5 -110.833 164.5 -190.5s55.5 -169.5 55.5 -269.5v-39h-799c6 -97.333 40.833 -178.666 104.5 -243.999
s146.834 -98 249.501 -98c58 0 113.833 11 167.5 33s100.5 53.333 140.5 94l73 -100c-104.667 -102.667 -235.667 -154 -393 -154c-148 0 -269.333 48.333 -364 145s-142 222 -142 376zM257.997 558.999l649.001 0.000976562c-0.666992 38 -7.5 75.667 -20.5 113
s-32.167 72.333 -57.5 105s-59.333 59.167 -102 79.5s-91 30.5 -145 30.5c-50.667 0 -96.667 -10 -138 -30s-74.833 -46.167 -100.5 -78.5s-45.834 -67.333 -60.501 -105s-23 -75.834 -25 -114.501zM257.998 1434h160l303 -295h-117z" />
    <glyph glyph-name="eacute" unicode="&#xe9;" horiz-adv-x="1153" 
d="M96 496c0 94.667 20.8301 181.499 62.4971 260.499s99.834 141.667 174.501 188s158.334 69.5 251.001 69.5c97.333 0 182.333 -23.667 255 -71s127.5 -110.833 164.5 -190.5s55.5 -169.5 55.5 -269.5v-39h-799c6 -97.333 40.833 -178.666 104.5 -243.999
s146.834 -98 249.501 -98c58 0 113.833 11 167.5 33s100.5 53.333 140.5 94l73 -100c-104.667 -102.667 -235.667 -154 -393 -154c-148 0 -269.333 48.333 -364 145s-142 222 -142 376zM257.997 558.999l649.001 0.000976562c-0.666992 38 -7.5 75.667 -20.5 113
s-32.167 72.333 -57.5 105s-59.333 59.167 -102 79.5s-91 30.5 -145 30.5c-50.667 0 -96.667 -10 -138 -30s-74.833 -46.167 -100.5 -78.5s-45.834 -67.333 -60.501 -105s-23 -75.834 -25 -114.501zM450.998 1139l303 295h159l-346 -295h-116z" />
    <glyph glyph-name="ecircumflex" unicode="&#xea;" horiz-adv-x="1153" 
d="M96 496c0 94.667 20.8301 181.499 62.4971 260.499s99.834 141.667 174.501 188s158.334 69.5 251.001 69.5c97.333 0 182.333 -23.667 255 -71s127.5 -110.833 164.5 -190.5s55.5 -169.5 55.5 -269.5v-39h-799c6 -97.333 40.833 -178.666 104.5 -243.999
s146.834 -98 249.501 -98c58 0 113.833 11 167.5 33s100.5 53.333 140.5 94l73 -100c-104.667 -102.667 -235.667 -154 -393 -154c-148 0 -269.333 48.333 -364 145s-142 222 -142 376zM257.997 558.999l649.001 0.000976562c-0.666992 38 -7.5 75.667 -20.5 113
s-32.167 72.333 -57.5 105s-59.333 59.167 -102 79.5s-91 30.5 -145 30.5c-50.667 0 -96.667 -10 -138 -30s-74.833 -46.167 -100.5 -78.5s-45.834 -67.333 -60.501 -105s-23 -75.834 -25 -114.501zM314.998 1139l195 295h147l201 -295h-104l-170 217l-164 -217h-105z" />
    <glyph glyph-name="edieresis" unicode="&#xeb;" horiz-adv-x="1153" 
d="M96 496c0 94.667 20.8301 181.499 62.4971 260.499s99.834 141.667 174.501 188s158.334 69.5 251.001 69.5c97.333 0 182.333 -23.667 255 -71s127.5 -110.833 164.5 -190.5s55.5 -169.5 55.5 -269.5v-39h-799c6 -97.333 40.833 -178.666 104.5 -243.999
s146.834 -98 249.501 -98c58 0 113.833 11 167.5 33s100.5 53.333 140.5 94l73 -100c-104.667 -102.667 -235.667 -154 -393 -154c-148 0 -269.333 48.333 -364 145s-142 222 -142 376zM257.997 558.999l649.001 0.000976562c-0.666992 38 -7.5 75.667 -20.5 113
s-32.167 72.333 -57.5 105s-59.333 59.167 -102 79.5s-91 30.5 -145 30.5c-50.667 0 -96.667 -10 -138 -30s-74.833 -46.167 -100.5 -78.5s-45.834 -67.333 -60.501 -105s-23 -75.834 -25 -114.501zM278.998 1237c0 26.667 9.33301 49 28 67s41.334 27 68.001 27
c26 0 48.167 -9.16699 66.5 -27.5s27.5 -40.5 27.5 -66.5c0 -25.333 -9.33301 -47.333 -28 -66s-40.667 -28 -66 -28c-26.667 0 -49.334 9.33301 -68.001 28s-28 40.667 -28 66zM701.998 1237c0 26 9.33301 48.167 28 66.5s41 27.5 67 27.5c26.667 0 49.334 -9 68.001 -27
s28 -40.333 28 -67c0 -25.333 -9.33301 -47.333 -28 -66s-41.334 -28 -68.001 -28c-25.333 0 -47.5 9.33301 -66.5 28s-28.5 40.667 -28.5 66z" />
    <glyph glyph-name="igrave" unicode="&#xec;" horiz-adv-x="460" 
d="M-98 1434h159l304 -295h-117zM154 0v989h153v-989h-153z" />
    <glyph glyph-name="iacute" unicode="&#xed;" horiz-adv-x="460" 
d="M96 1139l303 295h160l-346 -295h-117zM154 0v989h153v-989h-153z" />
    <glyph glyph-name="icircumflex" unicode="&#xee;" horiz-adv-x="460" 
d="M-39 1139l195 295h147l201 -295h-105l-170 217l-163 -217h-105zM154 0v989h153v-989h-153z" />
    <glyph glyph-name="idieresis" unicode="&#xef;" horiz-adv-x="460" 
d="M-76 1237c0 26.667 9.33301 49 28 67s41.334 27 68.001 27c26 0 48.333 -9.16699 67 -27.5s28 -40.5 28 -66.5c0 -25.333 -9.5 -47.333 -28.5 -66s-41.167 -28 -66.5 -28c-26.667 0 -49.334 9.33301 -68.001 28s-28 40.667 -28 66zM154 0v989h153v-989h-153zM348 1237
c0 26 9.16699 48.167 27.5 66.5s40.5 27.5 66.5 27.5c26.667 0 49.5 -9.16699 68.5 -27.5s28.5 -40.5 28.5 -66.5c0 -25.333 -9.5 -47.333 -28.5 -66s-41.833 -28 -68.5 -28c-25.333 0 -47.333 9.33301 -66 28s-28 40.667 -28 66z" />
    <glyph glyph-name="eth" unicode="&#xf0;" 
d="M96 479c0 144 42.334 263.667 127.001 359s192.667 143 324 143c133.333 0 241 -60 323 -180c-69.333 124 -178.333 240 -327 348l-293 -131l-37 86l242 106l-85 55l-69 44l84 127c83.333 -51.333 159.666 -103.333 228.999 -156l222 98l34 -84l-176 -77
c254 -216 381 -453 381 -711c0 -155.333 -44.5 -282.666 -133.5 -381.999s-207.5 -149 -355.5 -149c-145.333 0 -263.333 47.667 -354 143s-136 215.666 -136 360.999zM258.001 479c0 -102.667 29.334 -189.334 88.001 -260.001s138.667 -106 240 -106
s181.166 35.333 239.499 106s87.5 157.334 87.5 260.001c0 65.333 -12.333 125.333 -37 180s-62.167 99.167 -112.5 133.5s-109.5 51.5 -177.5 51.5c-101.333 0 -181.333 -35.5 -240 -106.5s-88 -157.167 -88 -258.5z" />
    <glyph glyph-name="ntilde" unicode="&#xf1;" horiz-adv-x="1130" 
d="M160 0v989h153v-143c38.667 46 90 85.5 154 118.5s131 49.5 201 49.5c208.667 0 313 -106.667 313 -320v-694h-152v647c0 83.333 -19.333 142.5 -58 177.5s-93.667 52.5 -165 52.5c-57.333 0 -112.5 -15 -165.5 -45s-95.5 -66.333 -127.5 -109v-723h-153zM246 1147
c0 82 17.333 148.167 52 198.5s83.334 75.5 146.001 75.5c27.333 0 51.666 -6.5 72.999 -19.5s38.666 -28.667 51.999 -47s26 -36.666 38 -54.999s25.333 -34 40 -47s31 -19.5 49 -19.5c29.333 0 53.166 14.667 71.499 44s27.5 73.333 27.5 132h92
c0 -82 -17.5 -148.167 -52.5 -198.5s-83.833 -75.5 -146.5 -75.5c-27.333 0 -51.666 6.5 -72.999 19.5s-38.666 28.667 -51.999 47s-26 36.666 -38 54.999s-25.333 34 -40 47s-31 19.5 -49 19.5c-29.333 0 -53 -14.667 -71 -44s-27 -73.333 -27 -132h-92z" />
    <glyph glyph-name="ograve" unicode="&#xf2;" 
d="M96 496c0 96 19.667 183 59 261s96.5 140.333 171.5 187s161.5 70 259.5 70s184.5 -23.333 259.5 -70s132 -109 171 -187s58.5 -165 58.5 -261s-19.5 -183.333 -58.5 -262s-96 -141.5 -171 -188.5s-161.5 -70.5 -259.5 -70.5s-184.5 23.5 -259.5 70.5
s-132.167 109.833 -171.5 188.5s-59 166 -59 262zM258 496c0 -106.667 29.334 -197.168 88.001 -271.501s138.667 -111.5 240 -111.5c68 0 127.167 18 177.5 54s87.833 82.5 112.5 139.5s37 120.167 37 189.5c0 68.667 -12.333 131.334 -37 188.001s-62.167 103 -112.5 139
s-109.5 54 -177.5 54s-127.333 -18 -178 -54s-88.334 -82.5 -113.001 -139.5s-37 -119.5 -37 -187.5zM258.001 1434h160l303 -295h-117z" />
    <glyph glyph-name="oacute" unicode="&#xf3;" 
d="M96 496c0 96 19.667 183 59 261s96.5 140.333 171.5 187s161.5 70 259.5 70s184.5 -23.333 259.5 -70s132 -109 171 -187s58.5 -165 58.5 -261s-19.5 -183.333 -58.5 -262s-96 -141.5 -171 -188.5s-161.5 -70.5 -259.5 -70.5s-184.5 23.5 -259.5 70.5
s-132.167 109.833 -171.5 188.5s-59 166 -59 262zM258 496c0 -106.667 29.334 -197.168 88.001 -271.501s138.667 -111.5 240 -111.5c68 0 127.167 18 177.5 54s87.833 82.5 112.5 139.5s37 120.167 37 189.5c0 68.667 -12.333 131.334 -37 188.001s-62.167 103 -112.5 139
s-109.5 54 -177.5 54s-127.333 -18 -178 -54s-88.334 -82.5 -113.001 -139.5s-37 -119.5 -37 -187.5zM451.001 1139l303 295h159l-346 -295h-116z" />
    <glyph glyph-name="ocircumflex" unicode="&#xf4;" 
d="M96 496c0 96 19.667 183 59 261s96.5 140.333 171.5 187s161.5 70 259.5 70s184.5 -23.333 259.5 -70s132 -109 171 -187s58.5 -165 58.5 -261s-19.5 -183.333 -58.5 -262s-96 -141.5 -171 -188.5s-161.5 -70.5 -259.5 -70.5s-184.5 23.5 -259.5 70.5
s-132.167 109.833 -171.5 188.5s-59 166 -59 262zM258 496c0 -106.667 29.334 -197.168 88.001 -271.501s138.667 -111.5 240 -111.5c68 0 127.167 18 177.5 54s87.833 82.5 112.5 139.5s37 120.167 37 189.5c0 68.667 -12.333 131.334 -37 188.001s-62.167 103 -112.5 139
s-109.5 54 -177.5 54s-127.333 -18 -178 -54s-88.334 -82.5 -113.001 -139.5s-37 -119.5 -37 -187.5zM317.001 1139l195 295h147l201 -295h-104l-170 217l-164 -217h-105z" />
    <glyph glyph-name="otilde" unicode="&#xf5;" 
d="M96 496c0 96 19.667 183 59 261s96.5 140.333 171.5 187s161.5 70 259.5 70s184.5 -23.333 259.5 -70s132 -109 171 -187s58.5 -165 58.5 -261s-19.5 -183.333 -58.5 -262s-96 -141.5 -171 -188.5s-161.5 -70.5 -259.5 -70.5s-184.5 23.5 -259.5 70.5
s-132.167 109.833 -171.5 188.5s-59 166 -59 262zM258 496c0 -106.667 29.334 -197.168 88.001 -271.501s138.667 -111.5 240 -111.5c68 0 127.167 18 177.5 54s87.833 82.5 112.5 139.5s37 120.167 37 189.5c0 68.667 -12.333 131.334 -37 188.001s-62.167 103 -112.5 139
s-109.5 54 -177.5 54s-127.333 -18 -178 -54s-88.334 -82.5 -113.001 -139.5s-37 -119.5 -37 -187.5zM266.001 1147c0 82 17.5 148.167 52.5 198.5s83.833 75.5 146.5 75.5c27.333 0 51.666 -6.5 72.999 -19.5s38.666 -28.667 51.999 -47s26 -36.666 38 -54.999
s25.333 -34 40 -47s31 -19.5 49 -19.5c29.333 0 53 14.667 71 44s27 73.333 27 132h92c0 -82 -17.333 -148.167 -52 -198.5s-83.334 -75.5 -146.001 -75.5c-27.333 0 -51.666 6.5 -72.999 19.5s-38.666 28.667 -51.999 47s-26 36.666 -38 54.999s-25.333 34 -40 47
s-31 19.5 -49 19.5c-29.333 0 -53.166 -14.667 -71.499 -44s-27.5 -73.333 -27.5 -132h-92z" />
    <glyph glyph-name="odieresis" unicode="&#xf6;" 
d="M96 496c0 96 19.667 183 59 261s96.5 140.333 171.5 187s161.5 70 259.5 70s184.5 -23.333 259.5 -70s132 -109 171 -187s58.5 -165 58.5 -261s-19.5 -183.333 -58.5 -262s-96 -141.5 -171 -188.5s-161.5 -70.5 -259.5 -70.5s-184.5 23.5 -259.5 70.5
s-132.167 109.833 -171.5 188.5s-59 166 -59 262zM258 496c0 -106.667 29.334 -197.168 88.001 -271.501s138.667 -111.5 240 -111.5c68 0 127.167 18 177.5 54s87.833 82.5 112.5 139.5s37 120.167 37 189.5c0 68.667 -12.333 131.334 -37 188.001s-62.167 103 -112.5 139
s-109.5 54 -177.5 54s-127.333 -18 -178 -54s-88.334 -82.5 -113.001 -139.5s-37 -119.5 -37 -187.5zM279.001 1237c0 26.667 9.33301 49 28 67s41.334 27 68.001 27c26 0 48.167 -9.16699 66.5 -27.5s27.5 -40.5 27.5 -66.5c0 -25.333 -9.33301 -47.333 -28 -66
s-40.667 -28 -66 -28c-26.667 0 -49.334 9.33301 -68.001 28s-28 40.667 -28 66zM702.001 1237c0 26 9.33301 48.167 28 66.5s41 27.5 67 27.5c26.667 0 49.334 -9 68.001 -27s28 -40.333 28 -67c0 -25.333 -9.33301 -47.333 -28 -66s-41.334 -28 -68.001 -28
c-25.333 0 -47.5 9.33301 -66.5 28s-28.5 40.667 -28.5 66z" />
    <glyph glyph-name="divide" unicode="&#xf7;" horiz-adv-x="1046" 
d="M59 637v106h928v-106h-928zM430 295c0 25.333 9.33301 47.333 28 66s40.667 28 66 28s47.333 -9.33301 66 -28s28 -40.667 28 -66s-9.33301 -47.333 -28 -66s-40.667 -28 -66 -28s-47.333 9.33301 -66 28s-28 40.667 -28 66zM430 1079c0 25.333 9.33301 47 28 65
s40.667 27 66 27s47.333 -9 66 -27s28 -39.667 28 -65c0 -26.667 -9.33301 -49.334 -28 -68.001s-40.667 -28 -66 -28s-47.333 9.33301 -66 28s-28 41.334 -28 68.001z" />
    <glyph glyph-name="oslash" unicode="&#xf8;" 
d="M96 496c0 96 19.668 182.999 59.001 260.999s96.5 140.333 171.5 187s161.5 70 259.5 70c106.667 0 200 -28 280 -84l47 59h113l-92 -117c45.333 -47.333 80.166 -103.5 104.499 -168.5s36.5 -134.167 36.5 -207.5c0 -96 -19.5 -183.333 -58.5 -262
s-96 -141.5 -171 -188.5s-161.5 -70.5 -259.5 -70.5c-112 0 -209 31 -291 93l-53 -68h-111l98 125c-88.667 96.667 -133 220.334 -133 371.001zM258.001 495.999c0 -98 23.334 -180.667 70.001 -248l446 567c-52 41.333 -114.667 62 -188 62c-68 0 -127.333 -18 -178 -54
s-88.334 -82.5 -113.001 -139.5s-37 -119.5 -37 -187.5zM385.002 181.999c54 -46 121 -69.001 201 -69.001c68 0 127.167 18 177.5 54s87.833 82.5 112.5 139.5s37 120.167 37 189.5c0 100.667 -25.667 185.334 -77 254.001z" />
    <glyph glyph-name="ugrave" unicode="&#xf9;" horiz-adv-x="1128" 
d="M154 291l0.000976562 698.001h153v-651c0 -82.667 19 -140.834 57 -174.501s93.333 -50.5 166 -50.5c57.333 0 112.666 14.333 165.999 43s95 64 125 106v727h154v-989h-154v139c-41.333 -46.667 -93 -85.667 -155 -117s-127.667 -47 -197 -47
c-210 0 -315 105.333 -315 316zM242.001 1434h159l304 -295h-117z" />
    <glyph glyph-name="uacute" unicode="&#xfa;" horiz-adv-x="1128" 
d="M154 291l0.000976562 698.001h153v-651c0 -82.667 19 -140.834 57 -174.501s93.333 -50.5 166 -50.5c57.333 0 112.666 14.333 165.999 43s95 64 125 106v727h154v-989h-154v139c-41.333 -46.667 -93 -85.667 -155 -117s-127.667 -47 -197 -47
c-210 0 -315 105.333 -315 316zM432.001 1139l303 295h160l-346 -295h-117z" />
    <glyph glyph-name="ucircumflex" unicode="&#xfb;" horiz-adv-x="1128" 
d="M154 291l0.000976562 698.001h153v-651c0 -82.667 19 -140.834 57 -174.501s93.333 -50.5 166 -50.5c57.333 0 112.666 14.333 165.999 43s95 64 125 106v727h154v-989h-154v139c-41.333 -46.667 -93 -85.667 -155 -117s-127.667 -47 -197 -47
c-210 0 -315 105.333 -315 316zM295.001 1139l194 295h148l201 -295h-105l-170 217l-164 -217h-104z" />
    <glyph glyph-name="udieresis" unicode="&#xfc;" horiz-adv-x="1128" 
d="M154 291l0.000976562 698.001h153v-651c0 -82.667 19 -140.834 57 -174.501s93.333 -50.5 166 -50.5c57.333 0 112.666 14.333 165.999 43s95 64 125 106v727h154v-989h-154v139c-41.333 -46.667 -93 -85.667 -155 -117s-127.667 -47 -197 -47
c-210 0 -315 105.333 -315 316zM264.001 1237c0 26.667 9.33301 49 28 67s41.334 27 68.001 27c26 0 48.333 -9.16699 67 -27.5s28 -40.5 28 -66.5c0 -25.333 -9.5 -47.333 -28.5 -66s-41.167 -28 -66.5 -28c-26.667 0 -49.334 9.33301 -68.001 28s-28 40.667 -28 66z
M688.001 1237c0 26 9.16699 48.167 27.5 66.5s40.5 27.5 66.5 27.5c26.667 0 49.5 -9.16699 68.5 -27.5s28.5 -40.5 28.5 -66.5c0 -25.333 -9.5 -47.333 -28.5 -66s-41.833 -28 -68.5 -28c-25.333 0 -47.333 9.33301 -66 28s-28 40.667 -28 66z" />
    <glyph glyph-name="yacute" unicode="&#xfd;" horiz-adv-x="1003" 
d="M6 989h167.999l328 -811l329 811h166l-495 -1190c-54 -131.333 -151 -198 -291 -200c-42.667 0 -79.667 4.66699 -111 14l23 139c24.667 -10.667 52.667 -16 84 -16c36 0 65.333 7.5 88 22.5s42.334 42.167 59.001 81.5l66 150zM368.999 1139l303 295h159l-346 -295h-116
z" />
    <glyph glyph-name="thorn" unicode="&#xfe;" 
d="M154 -377v1743h153v-524c37.333 52 85.5 93.667 144.5 125s122.167 47 189.5 47c131.333 0 237.5 -46.5 318.5 -139.5s121.5 -219.167 121.5 -378.5c0 -158 -40.5 -284.333 -121.5 -379s-187.167 -142 -318.5 -142c-66.667 0 -128.5 15.333 -185.5 46
s-106.5 73.667 -148.5 129v-527h-153zM307 272c27.333 -44.667 68.666 -82.333 123.999 -113s112.333 -46 171 -46c97.333 0 174.666 35.833 231.999 107.5s86 163.5 86 275.5s-28.667 203.5 -86 274.5s-134.666 106.5 -231.999 106.5c-58.667 0 -115.667 -15.333 -171 -46
s-96.666 -68 -123.999 -112v-447z" />
    <glyph glyph-name="ydieresis" unicode="&#xff;" horiz-adv-x="1003" 
d="M6 989h167.999l328 -811l329 811h166l-495 -1190c-54 -131.333 -151 -198 -291 -200c-42.667 0 -79.667 4.66699 -111 14l23 139c24.667 -10.667 52.667 -16 84 -16c36 0 65.333 7.5 88 22.5s42.334 42.167 59.001 81.5l66 150zM194.999 1237c0 26.667 9.33301 49 28 67
s41.334 27 68.001 27c26 0 48.167 -9.16699 66.5 -27.5s27.5 -40.5 27.5 -66.5c0 -25.333 -9.33301 -47.333 -28 -66s-40.667 -28 -66 -28c-26.667 0 -49.334 9.33301 -68.001 28s-28 40.667 -28 66zM617.999 1237c0 26 9.33301 48.167 28 66.5s41 27.5 67 27.5
c26.667 0 49.334 -9 68.001 -27s28 -40.333 28 -67c0 -25.333 -9.33301 -47.333 -28 -66s-41.334 -28 -68.001 -28c-25.333 0 -47.5 9.33301 -66.5 28s-28.5 40.667 -28.5 66z" />
    <glyph glyph-name="OE" unicode="&#x152;" horiz-adv-x="2263" 
d="M104 682c0 133.333 27.5 253.5 82.5 360.5s133.167 191 234.5 252s217 91.5 347 91.5c100 0 194.167 -23.167 282.5 -69.5s157.166 -112.5 206.499 -198.5v248h895v-152h-725v-440h711v-151h-711v-471h725v-152h-895v248
c-49.333 -87.333 -118.166 -154.666 -206.499 -201.999s-182.5 -71 -282.5 -71c-130 0 -245.667 30.833 -347 92.5s-179.5 146.167 -234.5 253.5s-82.5 227.666 -82.5 360.999zM281 682c0 -78.667 11.833 -152 35.5 -220s57 -126.833 100 -176.5s96.5 -88.5 160.5 -116.5
s134.333 -42 211 -42c106.667 0 201.5 28.5 284.5 85.5s144.5 139.167 184.5 246.5v448c-40 106.667 -101.333 188 -184 244s-177.667 84 -285 84c-154 0 -277 -51.667 -369 -155s-138 -236 -138 -398z" />
    <glyph glyph-name="oe" unicode="&#x153;" horiz-adv-x="1970" 
d="M96 496c0 96 19.667 183.004 59 261.004s96.5 140.333 171.5 187s161.5 70 259.5 70c58 0 111.333 -9.5 160 -28.5s89.167 -44.167 121.5 -75.5s58.333 -61.333 78 -90s36.167 -58.334 49.5 -89.001c12.667 30.667 29.5 61 50.5 91s47.667 60.167 80 90.5
s72.333 54.833 120 73.5s99.5 28 155.5 28c97.333 0 182.333 -23.667 255 -71s127.5 -110.833 164.5 -190.5s55.5 -169.5 55.5 -269.5v-39h-799c6 -96.667 41.167 -177.834 105.5 -243.501s147.5 -98.5 249.5 -98.5c58 0 113.667 11 167 33s100 53.333 140 94l73 -100
c-104.667 -102.667 -235.667 -154 -393 -154c-60 0 -115 9 -165 27s-91.833 42.167 -125.5 72.5s-61 60.166 -82 89.499s-38.833 60.666 -53.5 93.999c-11.333 -25.333 -23.833 -49.333 -37.5 -72s-32.5 -47.5 -56.5 -74.5s-49.833 -50 -77.5 -69s-62.167 -35 -103.5 -48
s-85.333 -19.5 -132 -19.5c-98 0 -184.5 23.5 -259.5 70.5s-132.167 109.833 -171.5 188.5s-59 166 -59 262zM258 496.004c0 -108.667 29.667 -200.001 89 -274.001s139 -111 239 -111s179.5 37 238.5 111s88.5 165.333 88.5 274c0 108 -29.5 198.5 -88.5 271.5
s-138.5 109.5 -238.5 109.5s-179.667 -36.667 -239 -110s-89 -163.666 -89 -270.999zM1075 559.003l651 0.000976562c-0.666992 30 -5.16699 60 -13.5 90s-21.166 59.333 -38.499 88s-38.333 54 -63 76s-55.167 39.833 -91.5 53.5s-75.833 20.5 -118.5 20.5
c-50.667 0 -97 -10 -139 -30s-75.833 -46.167 -101.5 -78.5s-45.834 -67.333 -60.501 -105s-23 -75.834 -25 -114.501z" />
    <glyph glyph-name="Ydieresis" unicode="&#x178;" horiz-adv-x="1282" 
d="M18 1366h199l424 -635l424 635h199l-537 -788v-578h-170v578zM340 1583c0 26.667 9.33301 49 28 67s41.334 27 68.001 27c26 0 48.167 -9.16699 66.5 -27.5s27.5 -40.5 27.5 -66.5c0 -25.333 -9.33301 -47.333 -28 -66s-40.667 -28 -66 -28
c-26.667 0 -49.334 9.33301 -68.001 28s-28 40.667 -28 66zM764 1583c0 26 9.16699 48.167 27.5 66.5s40.5 27.5 66.5 27.5c26.667 0 49.334 -9 68.001 -27s28 -40.333 28 -67c0 -25.333 -9.33301 -47.333 -28 -66s-41.334 -28 -68.001 -28
c-25.333 0 -47.333 9.33301 -66 28s-28 40.667 -28 66z" />
    <glyph glyph-name="circumflex" unicode="&#x2c6;" horiz-adv-x="542" 
d="M0 1139l195 295h147l201 -295h-105l-170 217l-164 -217h-104z" />
    <glyph glyph-name="tilde" unicode="&#x2dc;" horiz-adv-x="641" 
d="M0 1147c0 82 17.5 148.167 52.5 198.5s83.833 75.5 146.5 75.5c27.333 0 51.666 -6.5 72.999 -19.5s38.666 -28.667 51.999 -47s26 -36.666 38 -54.999s25.333 -34 40 -47s31 -19.5 49 -19.5c29.333 0 53 14.667 71 44s27 73.333 27 132h92
c0 -82 -17.5 -148.167 -52.5 -198.5s-83.833 -75.5 -146.5 -75.5c-27.333 0 -51.666 6.5 -72.999 19.5s-38.666 28.667 -51.999 47s-26 36.666 -38 54.999s-25.333 34 -40 47s-31 19.5 -49 19.5c-29.333 0 -53 -14.667 -71 -44s-27 -73.333 -27 -132h-92z" />
    <glyph glyph-name="uni2000" unicode="&#x2000;" horiz-adv-x="911" 
 />
    <glyph glyph-name="uni2001" unicode="&#x2001;" horiz-adv-x="1823" 
 />
    <glyph glyph-name="uni2002" unicode="&#x2002;" horiz-adv-x="911" 
 />
    <glyph glyph-name="uni2003" unicode="&#x2003;" horiz-adv-x="1823" 
 />
    <glyph glyph-name="uni2004" unicode="&#x2004;" horiz-adv-x="607" 
 />
    <glyph glyph-name="uni2005" unicode="&#x2005;" horiz-adv-x="455" 
 />
    <glyph glyph-name="uni2006" unicode="&#x2006;" horiz-adv-x="303" 
 />
    <glyph glyph-name="uni2007" unicode="&#x2007;" horiz-adv-x="303" 
 />
    <glyph glyph-name="uni2008" unicode="&#x2008;" horiz-adv-x="227" 
 />
    <glyph glyph-name="uni2009" unicode="&#x2009;" horiz-adv-x="364" 
 />
    <glyph glyph-name="uni200A" unicode="&#x200a;" horiz-adv-x="101" 
 />
    <glyph glyph-name="uni2010" unicode="&#x2010;" horiz-adv-x="614" 
d="M61 428v135h492v-135h-492z" />
    <glyph glyph-name="uni2011" unicode="&#x2011;" horiz-adv-x="614" 
d="M61 428v135h492v-135h-492z" />
    <glyph glyph-name="figuredash" unicode="&#x2012;" horiz-adv-x="614" 
d="M61 428v135h492v-135h-492z" />
    <glyph glyph-name="endash" unicode="&#x2013;" horiz-adv-x="1214" 
d="M61 428v135h1092v-135h-1092z" />
    <glyph glyph-name="emdash" unicode="&#x2014;" horiz-adv-x="1705" 
d="M61 428v135h1584v-135h-1584z" />
    <glyph glyph-name="quoteleft" unicode="&#x2018;" horiz-adv-x="471" 
d="M98 1079c0 60 15.333 117.499 46 172.499s70 99.833 118 134.5l78 -61c-33.333 -22 -62.833 -51 -88.5 -87s-40.5 -70.333 -44.5 -103c0.666992 0 4.66699 0.666992 12 2s13 2 17 2c27.333 0 50.5 -10.167 69.5 -30.5s28.5 -45.166 28.5 -74.499
c0 -30.667 -10.5 -56.667 -31.5 -78s-46.833 -32 -77.5 -32c-36 0 -66.167 13.833 -90.5 41.5s-36.5 65.5 -36.5 113.5z" />
    <glyph glyph-name="quoteright" unicode="&#x2019;" horiz-adv-x="471" 
d="M117 985c33.333 22 62.834 51.168 88.501 87.501s40.5 70.833 44.5 103.5c-6.66699 -3.33301 -16.334 -5 -29.001 -5c-27.333 0 -50.5 10.167 -69.5 30.5s-28.5 45.166 -28.5 74.499c0 30 10.5 55.833 31.5 77.5s46.5 32.5 76.5 32.5
c36.667 0 67.334 -13.833 92.001 -41.5s37 -65.5 37 -113.5c0 -60.667 -15.333 -118.5 -46 -173.5s-70.334 -100.167 -119.001 -135.5z" />
    <glyph glyph-name="quotesinglbase" unicode="&#x201a;" horiz-adv-x="471" 
d="M117 -197c34 22 63.667 50.999 89 86.999s40 70.667 44 104c-5.33301 -2.66699 -15 -4 -29 -4c-27.333 0 -50.5 10 -69.5 30s-28.5 44.667 -28.5 74c0 30 10.5 56 31.5 78s46.5 33 76.5 33c36.667 0 67.334 -14.167 92.001 -42.5s37 -66.166 37 -113.499
c0 -60.667 -15.333 -118.5 -46 -173.5s-70.334 -100.167 -119.001 -135.5z" />
    <glyph glyph-name="quotedblleft" unicode="&#x201c;" horiz-adv-x="798" 
d="M111 1079c0 60.667 15.332 118.498 45.999 173.498s70.334 99.5 119.001 133.5l76 -61c-33.333 -21.333 -62.5 -50.166 -87.5 -86.499s-39.5 -70.833 -43.5 -103.5l11 2c6.66699 1.33301 12 2 16 2c28.667 0 52.5 -10.167 71.5 -30.5s28.5 -45.166 28.5 -74.499
c0 -30.667 -10.667 -56.667 -32 -78s-47.333 -32 -78 -32c-36 0 -66.167 13.833 -90.5 41.5s-36.5 65.5 -36.5 113.5zM437.999 1079c0 60.667 15.5 118.498 46.5 173.498s70.833 99.5 119.5 133.5l76 -61c-33.333 -21.333 -62.5 -50.166 -87.5 -86.499
s-39.5 -70.833 -43.5 -103.5c0.666992 0 4.33398 0.666992 11.001 2s11.667 2 15 2c28.667 0 52.667 -10.167 72 -30.5s29 -45.166 29 -74.499c0 -30.667 -10.833 -56.667 -32.5 -78s-47.834 -32 -78.501 -32c-36 0 -66.167 13.833 -90.5 41.5s-36.5 65.5 -36.5 113.5z" />
    <glyph glyph-name="quotedblright" unicode="&#x201d;" horiz-adv-x="798" 
d="M117 985c33.333 22 62.834 51.168 88.501 87.501s40.5 70.833 44.5 103.5c-6.66699 -3.33301 -16.334 -5 -29.001 -5c-27.333 0 -50.5 10.167 -69.5 30.5s-28.5 45.166 -28.5 74.499c0 30 10.5 55.833 31.5 77.5s46.5 32.5 76.5 32.5
c36.667 0 67.334 -13.833 92.001 -41.5s37 -65.5 37 -113.5c0 -60.667 -15.333 -118.5 -46 -173.5s-70.334 -100.167 -119.001 -135.5zM446.001 985.001c33.333 22 62.667 51.168 88 87.501s40 70.833 44 103.5c-3.33301 -3.33301 -12.333 -5 -27 -5
c-28.667 0 -52.5 10.167 -71.5 30.5s-28.5 45.166 -28.5 74.499c0 30 10.833 55.833 32.5 77.5s47.5 32.5 77.5 32.5c36 0 66.167 -13.833 90.5 -41.5s36.5 -65.5 36.5 -113.5c0 -60.667 -15.5 -118.5 -46.5 -173.5s-70.833 -100.167 -119.5 -135.5z" />
    <glyph glyph-name="quotedblbase" unicode="&#x201e;" horiz-adv-x="798" 
d="M117 -197c34 22 63.667 50.999 89 86.999s40 70.667 44 104c-5.33301 -2.66699 -15 -4 -29 -4c-27.333 0 -50.5 10 -69.5 30s-28.5 44.667 -28.5 74c0 30 10.5 56 31.5 78s46.5 33 76.5 33c36.667 0 67.334 -14.167 92.001 -42.5s37 -66.166 37 -113.499
c0 -60.667 -15.333 -118.5 -46 -173.5s-70.334 -100.167 -119.001 -135.5zM446 -197.001c33.333 22 62.667 50.999 88 86.999s40 70.667 44 104c-2.66699 -2.66699 -11.667 -4 -27 -4c-28.667 0 -52.5 10 -71.5 30s-28.5 44.667 -28.5 74c0 30 10.833 56 32.5 78
s47.5 33 77.5 33c35.333 0 65.333 -14.167 90 -42.5s37 -66.166 37 -113.499c0 -60.667 -15.5 -118.5 -46.5 -173.5s-70.833 -100.167 -119.5 -135.5z" />
    <glyph glyph-name="bullet" unicode="&#x2022;" horiz-adv-x="733" 
d="M147 496c0 60.667 21.833 112.667 65.5 156s95.834 65 156.501 65s112.667 -21.667 156 -65s65 -95.333 65 -156c0 -60 -21.667 -111.667 -65 -155s-95.333 -65 -156 -65s-112.834 21.833 -156.501 65.5s-65.5 95.167 -65.5 154.5z" />
    <glyph glyph-name="ellipsis" unicode="&#x2026;" horiz-adv-x="1415" 
d="M123 92c0 30.667 11.167 57.167 33.5 79.5s48.833 33.5 79.5 33.5s57 -11.167 79 -33.5s33 -48.833 33 -79.5c0 -30 -11.167 -56.167 -33.5 -78.5s-48.5 -33.5 -78.5 -33.5c-30.667 0 -57.167 11.333 -79.5 34s-33.5 48.667 -33.5 78zM594 92
c0 30.667 11.167 57.167 33.5 79.5s48.833 33.5 79.5 33.5s57 -11.167 79 -33.5s33 -48.833 33 -79.5c0 -30 -11.167 -56.167 -33.5 -78.5s-48.5 -33.5 -78.5 -33.5s-56.333 11.333 -79 34s-34 48.667 -34 78zM1067 92c0 30.667 11.167 57.167 33.5 79.5
s48.833 33.5 79.5 33.5c30 0 55.833 -11.167 77.5 -33.5s32.5 -48.833 32.5 -79.5c0 -30 -10.833 -56.167 -32.5 -78.5s-47.5 -33.5 -77.5 -33.5c-30.667 0 -57.167 11.333 -79.5 34s-33.5 48.667 -33.5 78z" />
    <glyph glyph-name="uni202F" unicode="&#x202f;" horiz-adv-x="364" 
 />
    <glyph glyph-name="guilsinglleft" unicode="&#x2039;" horiz-adv-x="604" 
d="M61 498l328 362h154l-328 -362l328 -369h-154z" />
    <glyph glyph-name="guilsinglright" unicode="&#x203a;" horiz-adv-x="604" 
d="M61 129l328 369l-328 362h154l328 -362l-328 -369h-154z" />
    <glyph glyph-name="uni205F" unicode="&#x205f;" horiz-adv-x="455" 
 />
    <glyph glyph-name="Euro" unicode="&#x20ac;" horiz-adv-x="1423" 
d="M63 485v107.003h91c-2.66699 38.667 -4 68.667 -4 90s1.33301 52.666 4 93.999h-91v109h113c40.667 153.333 122.667 275.666 246 366.999s266.666 137 429.999 137c219.333 0 392 -90.333 518 -271l-141 -80c-40 60 -93.667 108.167 -161 144.5s-139.333 54.5 -216 54.5
c-116 0 -218.333 -31.667 -307 -95s-151.667 -149 -189 -257h619v-109h-643c-4 -30.667 -6 -62 -6 -94c0 -30.667 2 -60.667 6 -90h643v-107h-619c36 -108.667 98.667 -195.5 188 -260.5s192 -97.5 308 -97.5c76 0 147.833 18.333 215.5 55s121.5 84.667 161.5 144l143 -78
c-132.667 -182 -306 -273 -520 -273c-165.333 0 -309.666 46.167 -432.999 138.5s-205 216.166 -245 371.499h-111z" />
    <glyph glyph-name="trademark" unicode="&#x2122;" horiz-adv-x="929" 
d="M35 1313v53h311v-53h-127v-398h-57v398h-127zM420 915v451h88l131 -328l131 328h88v-451h-57v373l-154 -373h-16l-154 373v-373h-57z" />
    <glyph glyph-name="uniE000" unicode="&#xe000;" horiz-adv-x="993" 
d="M0 0v993h993v-993h-993z" />
    <glyph glyph-name="glyph1" horiz-adv-x="0" 
 />
    <glyph glyph-name="glyph2" horiz-adv-x="2048" 
 />
  </font>
</defs>
</svg>
